<?xml version="1.0" encoding="UTF-8" standalone="no"?>
<svg width="660px" height="251px" viewBox="0 0 660 251" version="1.1" xmlns="http://www.w3.org/2000/svg" xmlns:xlink="http://www.w3.org/1999/xlink" xmlns:sketch="http://www.bohemiancoding.com/sketch/ns">
    <!-- Generator: Sketch 3.3.3 (12081) - http://www.bohemiancoding.com/sketch -->
    <title>Untitled</title>
    <desc>Created with Sketch.</desc>
    <defs></defs>
    <g id="Page-1" stroke="none" stroke-width="1" fill="none" fill-rule="evenodd" sketch:type="MSPage">
        <g id="city" sketch:type="MSLayerGroup">
            <path d="M302.53,101.395 L323.031,101.395 L323.031,94.243 L332.14,94.243 L332.14,101.395 L394.721,101.395 L394.721,109.352 L393.048,109.352 L393.048,112.271 L390.627,112.271 L390.627,150.873 L393.048,150.873 L393.048,155.07 L390.627,155.07 L390.627,191.518 L393.048,191.518 L393.048,195.715 L390.627,195.715 L390.627,227.963 L393.048,227.963 L393.048,240.009 L390.627,240.009 L336.321,240.009 L314.075,240.009 L306.616,240.009 L304.201,240.009 L304.201,227.963 L306.616,227.963 L306.616,195.715 L304.201,195.715 L304.201,191.518 L306.616,191.518 L306.616,155.07 L304.201,155.07 L304.201,150.873 L306.616,150.873 L306.616,112.271 L304.201,112.271 L304.201,109.352 L302.53,109.352 L302.53,101.395 Z" id="Shape" opacity="0.3" fill="#333333" sketch:type="MSShapeGroup"></path>
            <path d="M139.048,134.604 L141.848,134.604 L103.44,99.791 L65.024,134.604 L67.824,134.604 L67.824,168.509 L66.379,168.509 L66.379,170.937 L67.824,170.937 L67.824,202.337 L67.824,240.009 L139.048,240.009 L139.048,202.337 L139.048,170.937 L140.493,170.937 L140.493,168.509 L139.048,168.509 L139.048,134.604 Z" id="Shape" opacity="0.3" fill="#333333" sketch:type="MSShapeGroup"></path>
            <path d="M582.165,137.52 L585.212,137.52 L543.416,103.669 L501.61,137.52 L504.657,137.52 L504.657,170.486 L503.085,170.486 L503.085,172.847 L504.657,172.847 L504.657,203.379 L504.657,240.009 L582.165,240.009 L582.165,203.379 L582.165,172.847 L583.737,172.847 L583.737,170.486 L582.165,170.486 L582.165,137.52 Z" id="Shape" opacity="0.3" fill="#333333" sketch:type="MSShapeGroup"></path>
            <g id="Group" transform="translate(482.000000, 122.000000)" sketch:type="MSShapeGroup">
                <rect id="Rectangle-path" fill="#FFFFFF" transform="translate(37.692184, 80.353435) rotate(180.063025) translate(-37.692184, -80.353435) " x="1.43216196" y="42.7354127" width="72.5200439" height="75.2360455"></rect>
                <rect id="Rectangle-path" fill="#FF9C80" transform="translate(37.671065, 98.516558) rotate(180.063025) translate(-37.671065, -98.516558) " x="1.41104346" y="79.0625457" width="72.5200439" height="38.9080235"></rect>
                <rect id="Rectangle-path" fill="#985F51" transform="translate(37.762222, 24.017363) rotate(180.063025) translate(-37.762222, -24.017363) " x="5.68170259" y="9.48135466" width="64.1610388" height="29.0720176"></rect>
                <path d="M1.49,38.518 L1.526,6.1 L5.699,6.104 L5.664,38.521 L69.825,38.592 L69.861,6.176 L74.036,6.18 L74,38.597 L73.992,38.597 L73.988,42.771 L1.469,42.691 L1.474,38.518 L1.49,38.518 Z" id="Shape" fill="#855347"></path>
                <rect id="Rectangle-path" fill="#855347" x="46.501" y="0.953" width="7.864" height="21.407"></rect>
                <g transform="translate(10.000000, 84.000000)" id="Shape">
                    <path d="M9.552,23.566 L0.098,23.566 L0.098,5.568 C0.098,2.953 2.213,0.839 4.821,0.839 L4.821,0.839 C7.437,0.839 9.552,2.952 9.552,5.568 L9.552,23.566 L9.552,23.566 Z" fill="#68847D"></path>
                    <path d="M24.809,23.566 L15.355,23.566 L15.355,5.568 C15.355,2.953 17.47,0.839 20.08,0.839 L20.08,0.839 C22.696,0.839 24.809,2.952 24.809,5.568 L24.809,23.566 L24.809,23.566 Z" fill="#68847D"></path>
                    <path d="M40.065,23.566 L30.613,23.566 L30.613,5.568 C30.613,2.953 32.726,0.839 35.334,0.839 L35.334,0.839 C37.952,0.839 40.065,2.952 40.065,5.568 L40.065,23.566 L40.065,23.566 Z" fill="#68847D"></path>
                    <path d="M55.324,23.566 L45.868,23.566 L45.868,5.568 C45.868,2.953 47.983,0.839 50.592,0.839 L50.592,0.839 C53.209,0.839 55.324,2.952 55.324,5.568 L55.324,23.566 L55.324,23.566 Z" fill="#68847D"></path>
                    <g transform="translate(16.000000, 0.000000)" fill="#8DB3A9">
                        <path d="M4.21,0.846 L0.529,23.561 L2.417,23.561 L6.03,1.257 C5.472,1.006 4.858,0.861 4.21,0.846 L4.21,0.846 Z"></path>
                        <path d="M6.935,1.803 L3.41,23.561 L4.215,23.561 L7.635,2.456 C7.422,2.215 7.19,1.996 6.935,1.803 L6.935,1.803 Z"></path>
                    </g>
                    <g transform="translate(1.000000, 0.000000)" fill="#8DB3A9">
                        <path d="M3.953,0.846 L0.272,23.561 L2.16,23.561 L5.773,1.257 C5.216,1.006 4.602,0.861 3.953,0.846 L3.953,0.846 Z"></path>
                        <path d="M6.678,1.803 L3.153,23.561 L3.958,23.561 L7.378,2.456 C7.165,2.215 6.934,1.996 6.678,1.803 L6.678,1.803 Z"></path>
                    </g>
                    <g transform="translate(31.000000, 0.000000)" fill="#8DB3A9">
                        <path d="M4.468,0.846 L0.787,23.561 L2.675,23.561 L6.288,1.257 C5.729,1.006 5.116,0.861 4.468,0.846 L4.468,0.846 Z"></path>
                        <path d="M7.191,1.803 L3.667,23.561 L4.472,23.561 L7.892,2.456 C7.68,2.215 7.448,1.996 7.191,1.803 L7.191,1.803 Z"></path>
                    </g>
                    <g transform="translate(47.000000, 0.000000)" fill="#8DB3A9">
                        <path d="M3.725,0.846 L0.044,23.561 L1.932,23.561 L5.545,1.257 C4.986,1.006 4.373,0.861 3.725,0.846 L3.725,0.846 Z"></path>
                        <path d="M6.448,1.803 L2.924,23.561 L3.729,23.561 L7.149,2.456 C6.937,2.215 6.705,1.996 6.448,1.803 L6.448,1.803 Z"></path>
                    </g>
                </g>
                <rect id="Rectangle-path" fill="#AD6D5C" transform="translate(37.658588, 114.185719) rotate(0.063025) translate(-37.658588, -114.185719) " x="0.236065059" y="110.411717" width="74.8450453" height="7.54800457"></rect>
                <g transform="translate(10.000000, 50.000000)" id="Shape">
                    <path d="M9.552,23.507 L0.098,23.507 L0.098,5.508 C0.098,2.893 2.213,0.779 4.821,0.779 L4.821,0.779 C7.437,0.779 9.552,2.892 9.552,5.508 L9.552,23.507 L9.552,23.507 Z" fill="#68847D"></path>
                    <path d="M24.809,23.507 L15.355,23.507 L15.355,5.508 C15.355,2.893 17.47,0.779 20.08,0.779 L20.08,0.779 C22.696,0.779 24.809,2.892 24.809,5.508 L24.809,23.507 L24.809,23.507 Z" fill="#68847D"></path>
                    <path d="M40.065,23.507 L30.613,23.507 L30.613,5.508 C30.613,2.893 32.726,0.779 35.334,0.779 L35.334,0.779 C37.952,0.779 40.065,2.892 40.065,5.508 L40.065,23.507 L40.065,23.507 Z" fill="#68847D"></path>
                    <path d="M55.324,23.507 L45.868,23.507 L45.868,5.508 C45.868,2.893 47.983,0.779 50.592,0.779 L50.592,0.779 C53.209,0.779 55.324,2.892 55.324,5.508 L55.324,23.507 L55.324,23.507 Z" fill="#68847D"></path>
                    <g transform="translate(16.000000, 0.000000)" fill="#8DB3A9">
                        <path d="M4.21,0.785 L0.529,23.5 L2.417,23.5 L6.03,1.197 C5.472,0.945 4.858,0.802 4.21,0.785 L4.21,0.785 Z"></path>
                        <path d="M6.935,1.742 L3.41,23.5 L4.215,23.5 L7.635,2.396 C7.422,2.154 7.19,1.937 6.935,1.742 L6.935,1.742 Z"></path>
                    </g>
                    <g transform="translate(1.000000, 0.000000)" fill="#8DB3A9">
                        <path d="M3.953,0.785 L0.272,23.5 L2.16,23.5 L5.773,1.197 C5.216,0.945 4.602,0.802 3.953,0.785 L3.953,0.785 Z"></path>
                        <path d="M6.678,1.742 L3.153,23.5 L3.958,23.5 L7.378,2.396 C7.165,2.154 6.934,1.937 6.678,1.742 L6.678,1.742 Z"></path>
                    </g>
                    <g transform="translate(31.000000, 0.000000)" fill="#8DB3A9">
                        <path d="M4.468,0.785 L0.787,23.5 L2.675,23.5 L6.288,1.197 C5.729,0.945 5.116,0.802 4.468,0.785 L4.468,0.785 Z"></path>
                        <path d="M7.191,1.742 L3.667,23.5 L4.472,23.5 L7.892,2.396 C7.68,2.154 7.448,1.937 7.191,1.742 L7.191,1.742 Z"></path>
                    </g>
                    <g transform="translate(47.000000, 0.000000)" fill="#8DB3A9">
                        <path d="M3.725,0.785 L0.044,23.5 L1.932,23.5 L5.545,1.197 C4.986,0.945 4.373,0.802 3.725,0.785 L3.725,0.785 Z"></path>
                        <path d="M6.448,1.742 L2.924,23.5 L3.729,23.5 L7.149,2.396 C6.937,2.154 6.705,1.937 6.448,1.742 L6.448,1.742 Z"></path>
                    </g>
                </g>
                <path d="M75.071,118.009 L0.227,117.926 L0.235,110.378 L1.394,110.379 L1.394,6.219 L75.071,118.009 Z" id="Shape" opacity="0.1" fill="#333333"></path>
            </g>
            <path d="M257.367,159.523 L255.741,159.523 L255.741,120.488 L255.748,120.488 L255.748,115.874 L255.731,115.874 L255.731,80.033 L251.116,80.033 L251.116,83.729 L238.256,83.729 L238.256,76.326 L231.677,76.326 L231.677,83.729 L228.732,83.729 L228.732,72.918 L225.101,72.918 L225.101,83.729 L180.181,83.729 L180.181,80.033 L175.565,80.033 L175.565,115.874 L175.575,115.874 L175.575,120.488 L175.565,120.488 L175.565,159.523 L173.939,159.523 L173.939,162.256 L175.565,162.256 L175.565,197.603 L175.565,240.009 L255.741,240.009 L255.741,197.603 L255.741,162.256 L257.367,162.256 L257.367,159.523 Z" id="Shape" opacity="0.3" fill="#333333" sketch:type="MSShapeGroup"></path>
            <g id="Group" transform="translate(270.000000, 132.000000)" sketch:type="MSShapeGroup">
                <path d="M49.417,108.009 L84.74,108.009 L84.74,63.266 L67.08,37.414 L49.417,63.266 L49.417,108.009 Z" id="Shape" fill="#FFFFFF"></path>
                <path d="M0.617,108.009 L35.939,108.009 L35.939,63.266 L18.279,37.414 L0.617,63.266 L0.617,108.009 Z" id="Shape" fill="#FFFFFF"></path>
                <rect id="Rectangle-path" fill="#E6E6E6" x="0.617" y="63.266" width="48.801" height="44.743"></rect>
                <path d="M16.764,39.631 L65.564,39.631 L49.417,63.266 L0.617,63.266 L16.764,39.631 Z" id="Shape" fill="#985F51"></path>
                <rect id="Rectangle-path" fill="#F2F2F2" x="49.417" y="102.686" width="36.038" height="5.323"></rect>
                <rect id="Rectangle-path" fill="#CCCCCC" x="0.002" y="102.686" width="49.415" height="5.323"></rect>
                <g transform="translate(7.000000, 79.000000)" id="Shape">
                    <path d="M27.962,20.666 L35.092,20.666 L35.092,3.719 C35.092,1.752 33.498,0.158 31.532,0.158 L31.522,0.158 C29.556,0.158 27.962,1.752 27.962,3.719 L27.962,20.666 L27.962,20.666 Z" fill="#68847D"></path>
                    <path d="M14.459,20.666 L21.574,20.666 L21.574,3.716 C21.574,1.751 19.981,0.158 18.016,0.158 L18.016,0.158 C16.051,0.158 14.458,1.751 14.458,3.716 L14.458,20.666 L14.459,20.666 Z" fill="#68847D"></path>
                    <path d="M0.94,20.666 L8.073,20.666 L8.073,3.725 C8.073,1.755 6.476,0.159 4.507,0.159 L4.507,0.159 C2.537,0.159 0.941,1.756 0.941,3.725 L0.941,20.666 L0.94,20.666 Z" fill="#68847D"></path>
                    <g transform="translate(1.000000, 0.000000)" fill="#8DB3A9">
                        <path d="M3.946,0.181 L0.631,20.644 L2.376,20.644 L5.587,0.821 C5.114,0.477 4.554,0.257 3.946,0.181 L3.946,0.181 Z"></path>
                        <path d="M6.377,1.607 L3.293,20.643 L4.037,20.643 L6.932,2.775 C6.817,2.35 6.63,1.955 6.377,1.607 L6.377,1.607 Z"></path>
                    </g>
                    <g transform="translate(15.000000, 0.000000)" fill="#8DB3A9">
                        <path d="M3.457,0.181 L0.142,20.644 L1.886,20.644 L5.098,0.821 C4.625,0.477 4.065,0.257 3.457,0.181 L3.457,0.181 Z"></path>
                        <path d="M5.888,1.607 L2.804,20.643 L3.548,20.643 L6.443,2.775 C6.328,2.35 6.141,1.955 5.888,1.607 L5.888,1.607 Z"></path>
                    </g>
                    <g transform="translate(28.000000, 0.000000)" fill="#8DB3A9">
                        <path d="M3.967,0.181 L0.652,20.644 L2.396,20.644 L5.608,0.821 C5.135,0.477 4.575,0.257 3.967,0.181 L3.967,0.181 Z"></path>
                        <path d="M6.397,1.607 L3.313,20.643 L4.057,20.643 L6.953,2.775 C6.837,2.35 6.651,1.955 6.397,1.607 L6.397,1.607 Z"></path>
                    </g>
                </g>
                <path d="M46.49,63.266 L49.417,63.266 L67.08,37.414 L64.152,37.414 L46.49,63.266 Z" id="Shape" fill="#855347"></path>
                <rect id="Rectangle-path" fill="#855347" x="3.143" y="60.404" width="46.035" height="2.861"></rect>
                <path d="M0.617,63.266 L3.542,63.266 L21.205,37.414 L18.279,37.414 L0.617,63.266 Z" id="Shape" fill="#855347"></path>
                <circle id="Oval" fill="#68847D" cx="67.08" cy="59.512" r="6.305"></circle>
                <rect id="Rectangle-path" fill="#E6E6E6" x="17.402" y="21.627" width="15.524" height="33.335"></rect>
                <path d="M32.927,54.962 L42.452,42.726 L42.452,21.627 L32.927,21.627 L32.927,54.962 Z" id="Shape" fill="#FFFFFF"></path>
                <path d="M29.927,0.289 L17.402,21.627 L42.452,21.627 L29.927,0.289 Z" id="Shape" fill="#985F51"></path>
                <path d="M29.927,0.289 L32.927,21.627 L42.452,21.627 L29.927,0.289 Z" id="Shape" fill="#AD6D5C"></path>
                <circle id="Oval" fill="#68847D" cx="25.271" cy="30.85" r="3.887"></circle>
                <rect id="Rectangle-path" fill="#F2F2F2" x="49.417" y="72.711" width="36.038" height="1.865"></rect>
                <rect id="Rectangle-path" fill="#CCCCCC" x="0.002" y="72.711" width="49.415" height="1.865"></rect>
                <path d="M69.521,108.009 L0.002,108.009 L0.002,102.686 L0.617,102.686 L0.617,74.576 L0.002,74.576 L0.002,72.712 L0.617,72.711 L0.617,63.266 L17.39,38.729 L17.402,21.627 L69.521,108.009 Z" id="Shape" opacity="0.1" fill="#333333"></path>
            </g>
            <g id="Group" transform="translate(550.000000, 169.000000)" sketch:type="MSShapeGroup">
                <path d="M49.789,71.009 L85.111,71.009 L85.111,26.266 L67.451,0.414 L49.789,26.266 L49.789,71.009 Z" id="Shape" fill="#FFEABF"></path>
                <path d="M0.988,71.009 L36.311,71.009 L36.311,26.266 L18.65,0.414 L0.988,26.266 L0.988,71.009 Z" id="Shape" fill="#FFFFFF"></path>
                <path d="M21.576,0.414 L25.531,4.354 L18.649,4.697 L21.576,0.414 Z" id="Shape" fill="#736357"></path>
                <rect id="Rectangle-path" fill="#EBD7B0" x="0.988" y="26.266" width="48.801" height="44.743"></rect>
                <path d="M17.135,2.631 L65.936,2.631 L49.789,26.266 L0.988,26.266 L17.135,2.631 Z" id="Shape" fill="#998675"></path>
                <rect id="Rectangle-path" fill="#998675" x="49.789" y="65.686" width="36.037" height="5.323"></rect>
                <rect id="Rectangle-path" fill="#736357" x="0.373" y="65.686" width="49.416" height="5.323"></rect>
                <path d="M46.861,26.266 L49.789,26.266 L67.451,0.414 L64.523,0.414 L46.861,26.266 Z" id="Shape" fill="#736357"></path>
                <rect id="Rectangle-path" fill="#736357" x="3.514" y="23.404" width="46.035" height="2.861"></rect>
                <path d="M0.988,26.266 L3.914,26.266 L21.576,0.414 L18.65,0.414 L0.988,26.266 Z" id="Shape" fill="#736357"></path>
                <rect id="Rectangle-path" fill="#998675" x="49.789" y="32.711" width="36.037" height="1.865"></rect>
                <rect id="Rectangle-path" fill="#736357" x="0.373" y="32.711" width="49.416" height="1.865"></rect>
                <g transform="translate(6.000000, 40.000000)" id="Shape">
                    <path d="M9.695,21.573 L0.993,21.573 L0.993,5.006 C0.993,2.598 2.941,0.651 5.342,0.651 L5.342,0.651 C7.749,0.651 9.696,2.598 9.696,5.006 L9.696,21.573 L9.695,21.573 Z" fill="#68847D"></path>
                    <path d="M23.739,21.573 L15.036,21.573 L15.036,5.006 C15.036,2.598 16.983,0.651 19.385,0.651 L19.385,0.651 C21.793,0.651 23.739,2.598 23.739,5.006 L23.739,21.573 L23.739,21.573 Z" fill="#68847D"></path>
                    <path d="M37.783,21.573 L29.082,21.573 L29.082,5.006 C29.082,2.598 31.029,0.651 33.429,0.651 L33.429,0.651 C35.839,0.651 37.783,2.598 37.783,5.006 L37.783,21.573 L37.783,21.573 Z" fill="#68847D"></path>
                    <g transform="translate(30.000000, 0.000000)" fill="#8DB3A9">
                        <path d="M3.671,0.657 L0.284,21.566 L1.877,21.566 L5.212,0.98 C4.736,0.781 4.215,0.675 3.671,0.657 L3.671,0.657 Z"></path>
                        <path d="M5.981,1.398 L2.713,21.566 L3.393,21.566 L6.581,1.892 C6.396,1.711 6.196,1.545 5.981,1.398 L5.981,1.398 Z"></path>
                    </g>
                    <g transform="translate(16.000000, 0.000000)" fill="#8DB3A9">
                        <path d="M3.626,0.657 L0.239,21.566 L1.832,21.566 L5.167,0.98 C4.691,0.781 4.17,0.675 3.626,0.657 L3.626,0.657 Z"></path>
                        <path d="M5.937,1.398 L2.669,21.566 L3.349,21.566 L6.537,1.892 C6.352,1.711 6.151,1.545 5.937,1.398 L5.937,1.398 Z"></path>
                    </g>
                    <g transform="translate(2.000000, 0.000000)" fill="#8DB3A9">
                        <path d="M3.583,0.657 L0.195,21.566 L1.788,21.566 L5.123,0.98 C4.648,0.781 4.127,0.675 3.583,0.657 L3.583,0.657 Z"></path>
                        <path d="M5.894,1.398 L2.626,21.566 L3.306,21.566 L6.494,1.892 C6.309,1.711 6.108,1.545 5.894,1.398 L5.894,1.398 Z"></path>
                    </g>
                </g>
            </g>
            <g id="Group" transform="translate(40.000000, 144.000000)" sketch:type="MSShapeGroup">
                <rect id="Rectangle-path" fill="#FED991" x="0.342" y="43.135" width="73.518" height="52.874"></rect>
                <rect id="Rectangle-path" fill="#754F38" x="4.583" y="9.43" width="65.045" height="29.474"></rect>
                <path d="M0.351,38.903 L0.351,6.039 L4.583,6.039 L4.583,38.903 L69.628,38.903 L69.628,6.039 L73.86,6.039 L73.86,38.903 L73.852,38.903 L73.852,43.135 L0.335,43.135 L0.335,38.903 L0.351,38.903 Z" id="Shape" fill="#593C2B"></path>
                <rect id="Rectangle-path" fill="#FED991" x="56.747" y="0.767" width="5.482" height="17.858"></rect>
                <g transform="translate(9.000000, 51.000000)" id="Shape">
                    <path d="M9.692,23.859 L0.108,23.859 L0.108,5.613 C0.108,2.962 2.253,0.819 4.895,0.819 L4.895,0.819 C7.547,0.819 9.692,2.962 9.692,5.613 L9.692,23.859 L9.692,23.859 Z" fill="#68847D"></path>
                    <path d="M25.159,23.859 L15.575,23.859 L15.575,5.613 C15.575,2.962 17.72,0.819 20.364,0.819 L20.364,0.819 C23.016,0.819 25.159,2.962 25.159,5.613 L25.159,23.859 L25.159,23.859 Z" fill="#68847D"></path>
                    <path d="M40.625,23.859 L31.043,23.859 L31.043,5.613 C31.043,2.962 33.186,0.819 35.828,0.819 L35.828,0.819 C38.482,0.819 40.625,2.962 40.625,5.613 L40.625,23.859 L40.625,23.859 Z" fill="#68847D"></path>
                    <path d="M56.094,23.859 L46.508,23.859 L46.508,5.613 C46.508,2.962 48.653,0.819 51.297,0.819 L51.297,0.819 C53.949,0.819 56.094,2.962 56.094,5.613 L56.094,23.859 L56.094,23.859 Z" fill="#68847D"></path>
                    <g transform="translate(16.000000, 0.000000)" fill="#8DB3A9">
                        <path d="M4.497,0.826 L0.766,23.853 L2.679,23.853 L6.342,1.242 C5.776,0.988 5.154,0.842 4.497,0.826 L4.497,0.826 Z"></path>
                        <path d="M7.258,1.797 L3.685,23.854 L4.501,23.854 L7.967,2.458 C7.753,2.214 7.518,1.992 7.258,1.797 L7.258,1.797 Z"></path>
                    </g>
                    <g transform="translate(1.000000, 0.000000)" fill="#8DB3A9">
                        <path d="M4.03,0.826 L0.3,23.853 L2.213,23.853 L5.876,1.242 C5.31,0.988 4.688,0.842 4.03,0.826 L4.03,0.826 Z"></path>
                        <path d="M6.792,1.797 L3.218,23.854 L4.034,23.854 L7.5,2.458 C7.287,2.214 7.051,1.992 6.792,1.797 L6.792,1.797 Z"></path>
                    </g>
                    <g transform="translate(32.000000, 0.000000)" fill="#8DB3A9">
                        <path d="M3.964,0.826 L0.233,23.853 L2.146,23.853 L5.809,1.242 C5.244,0.988 4.622,0.842 3.964,0.826 L3.964,0.826 Z"></path>
                        <path d="M6.726,1.797 L3.153,23.854 L3.969,23.854 L7.435,2.458 C7.221,2.214 6.986,1.992 6.726,1.797 L6.726,1.797 Z"></path>
                    </g>
                    <g transform="translate(47.000000, 0.000000)" fill="#8DB3A9">
                        <path d="M4.431,0.826 L0.7,23.853 L2.613,23.853 L6.276,1.242 C5.711,0.988 5.088,0.842 4.431,0.826 L4.431,0.826 Z"></path>
                        <path d="M7.193,1.797 L3.62,23.854 L4.436,23.854 L7.903,2.458 C7.688,2.214 7.453,1.992 7.193,1.797 L7.193,1.797 Z"></path>
                    </g>
                </g>
                <rect id="Rectangle-path" fill="#E6C483" x="0.335" y="80.931" width="73.525" height="15.078"></rect>
                <path d="M27.898,10.543 L18.692,19.292 L18.692,34.167 L37.098,34.167 L37.098,19.292 L37.105,19.292 L27.898,10.543 Z" id="Shape" fill="#FED991"></path>
                <path d="M39.776,19.646 L27.902,8.482 L27.898,8.486 L27.895,8.482 L16.021,19.646 L17.855,21.598 L27.898,12.154 L37.942,21.598 L39.776,19.646 Z" id="Shape" fill="#593C2B"></path>
                <rect id="Rectangle-path" fill="#593C2B" x="21.476" y="17.104" width="12.846" height="1.081"></rect>
                <rect id="Rectangle-path" fill="#68847D" x="23.105" y="20.389" width="9.586" height="11.764"></rect>
                <g transform="translate(24.000000, 20.000000)" id="Shape" fill="#8DB3A9">
                    <path d="M3.507,0.389 L0.55,12.152 L2.466,12.152 L5.422,0.389 L3.507,0.389 Z"></path>
                    <path d="M6.429,0.389 L3.473,12.152 L4.291,12.152 L7.247,0.389 L6.429,0.389 Z"></path>
                </g>
                <path d="M0.342,96.009 L73.86,96.009 L73.86,6.039 L0.342,96.009 Z" id="Shape" opacity="0.1" fill="#333333"></path>
            </g>
            <g id="Group" transform="translate(447.000000, 201.000000)" sketch:type="MSShapeGroup">
                <circle id="Oval" fill="#C6F81C" cx="12.354" cy="12.681" r="11.99"></circle>
                <path d="M12.356,24.667 L12.356,0.689 C5.733,0.689 0.364,6.059 0.364,12.677 C0.364,19.299 5.733,24.667 12.356,24.667 L12.356,24.667 Z" id="Shape" fill="#85BC02"></path>
                <rect id="Rectangle-path" fill="#754C24" x="10.763" y="17.905" width="3.186" height="21.104"></rect>
            </g>
            <path d="M483.942,231.176 C481.569,231.176 479.419,232.116 477.831,233.64 C475.716,230.305 471.999,228.082 467.759,228.082 C461.173,228.082 455.835,233.422 455.833,240.009 L492.778,240.009 C492.778,235.131 488.823,231.176 483.942,231.176 L483.942,231.176 Z" id="Shape" fill="#85BC02" sketch:type="MSShapeGroup"></path>
            <path d="M531.449,231.176 C533.822,231.176 535.972,232.116 537.56,233.64 C539.675,230.305 543.39,228.082 547.63,228.082 C554.218,228.082 559.558,233.422 559.558,240.009 L522.613,240.009 C522.615,235.131 526.57,231.176 531.449,231.176 L531.449,231.176 Z" id="Shape" fill="#85BC02" sketch:type="MSShapeGroup"></path>
            <g id="Group" transform="translate(196.000000, 103.000000)" sketch:type="MSShapeGroup">
                <rect id="Rectangle-path" fill="#FFEABF" x="4.554" y="24.022" width="73.108" height="112.986"></rect>
                <rect id="Rectangle-path" fill="#534741" x="55.45" y="10.159" width="7.927" height="13.863"></rect>
                <rect id="Rectangle-path" fill="#534741" x="47.396" y="3.804" width="5.184" height="20.219"></rect>
                <g transform="translate(13.000000, 32.000000)" id="Shape">
                    <path d="M9.801,23.023 L0.271,23.023 L0.271,4.878 C0.271,2.241 2.404,0.108 5.033,0.108 L5.033,0.108 C7.67,0.108 9.801,2.241 9.801,4.878 L9.801,23.023 L9.801,23.023 Z" fill="#68847D"></path>
                    <path d="M25.182,23.023 L15.651,23.023 L15.651,4.878 C15.651,2.241 17.784,0.108 20.414,0.108 L20.414,0.108 C23.052,0.108 25.183,2.241 25.183,4.878 L25.183,23.023 L25.182,23.023 Z" fill="#68847D"></path>
                    <path d="M40.562,23.023 L31.033,23.023 L31.033,4.878 C31.033,2.241 33.166,0.108 35.794,0.108 L35.794,0.108 C38.434,0.108 40.563,2.241 40.563,4.878 L40.563,23.023 L40.562,23.023 Z" fill="#68847D"></path>
                    <path d="M55.947,23.023 L46.414,23.023 L46.414,4.878 C46.414,2.241 48.547,0.108 51.175,0.108 L51.175,0.108 C53.815,0.108 55.947,2.241 55.947,4.878 L55.947,23.023 L55.947,23.023 Z" fill="#68847D"></path>
                    <g transform="translate(47.000000, 0.000000)" fill="#8DB3A9">
                        <path d="M4.442,0.117 L0.732,23.015 L2.477,23.015 L6.129,0.47 C5.609,0.253 5.038,0.137 4.442,0.117 L4.442,0.117 Z"></path>
                        <path d="M6.973,0.929 L3.394,23.016 L4.139,23.016 L7.63,1.471 C7.427,1.271 7.208,1.089 6.973,0.929 L6.973,0.929 Z"></path>
                    </g>
                    <g transform="translate(32.000000, 0.000000)" fill="#8DB3A9">
                        <path d="M4.06,0.117 L0.35,23.015 L2.095,23.015 L5.747,0.47 C5.226,0.253 4.655,0.137 4.06,0.117 L4.06,0.117 Z"></path>
                        <path d="M6.59,0.929 L3.011,23.016 L3.756,23.016 L7.247,1.471 C7.044,1.271 6.825,1.089 6.59,0.929 L6.59,0.929 Z"></path>
                    </g>
                    <g transform="translate(16.000000, 0.000000)" fill="#8DB3A9">
                        <path d="M4.678,0.117 L0.968,23.015 L2.713,23.015 L6.365,0.47 C5.844,0.253 5.273,0.137 4.678,0.117 L4.678,0.117 Z"></path>
                        <path d="M7.208,0.929 L3.629,23.016 L4.374,23.016 L7.864,1.471 C7.662,1.271 7.443,1.089 7.208,0.929 L7.208,0.929 Z"></path>
                    </g>
                    <g transform="translate(1.000000, 0.000000)" fill="#8DB3A9">
                        <path d="M4.298,0.117 L0.588,23.015 L2.332,23.015 L5.985,0.47 C5.464,0.253 4.894,0.137 4.298,0.117 L4.298,0.117 Z"></path>
                        <path d="M6.828,0.929 L3.249,23.016 L3.993,23.016 L7.484,1.471 C7.282,1.271 7.063,1.089 6.828,0.929 L6.828,0.929 Z"></path>
                    </g>
                </g>
                <g transform="translate(13.000000, 67.000000)" id="Shape">
                    <path d="M9.801,23.426 L0.271,23.426 L0.271,5.281 C0.271,2.643 2.404,0.51 5.033,0.51 L5.033,0.51 C7.67,0.51 9.801,2.643 9.801,5.281 L9.801,23.426 L9.801,23.426 Z" fill="#68847D"></path>
                    <path d="M25.182,23.426 L15.651,23.426 L15.651,5.281 C15.651,2.643 17.784,0.51 20.414,0.51 L20.414,0.51 C23.052,0.51 25.183,2.643 25.183,5.281 L25.183,23.426 L25.182,23.426 Z" fill="#68847D"></path>
                    <path d="M40.562,23.426 L31.033,23.426 L31.033,5.281 C31.033,2.643 33.166,0.51 35.794,0.51 L35.794,0.51 C38.434,0.51 40.563,2.643 40.563,5.281 L40.563,23.426 L40.562,23.426 Z" fill="#68847D"></path>
                    <path d="M55.947,23.426 L46.414,23.426 L46.414,5.281 C46.414,2.643 48.547,0.51 51.175,0.51 L51.175,0.51 C53.815,0.51 55.947,2.643 55.947,5.281 L55.947,23.426 L55.947,23.426 Z" fill="#68847D"></path>
                    <g transform="translate(47.000000, 0.000000)" fill="#8DB3A9">
                        <path d="M4.442,0.519 L0.732,23.418 L2.477,23.418 L6.129,0.873 C5.609,0.654 5.038,0.538 4.442,0.519 L4.442,0.519 Z"></path>
                        <path d="M6.973,1.33 L3.394,23.418 L4.139,23.418 L7.63,1.872 C7.427,1.673 7.208,1.49 6.973,1.33 L6.973,1.33 Z"></path>
                    </g>
                    <g transform="translate(32.000000, 0.000000)" fill="#8DB3A9">
                        <path d="M4.06,0.519 L0.35,23.418 L2.095,23.418 L5.747,0.873 C5.226,0.654 4.655,0.538 4.06,0.519 L4.06,0.519 Z"></path>
                        <path d="M6.59,1.33 L3.011,23.418 L3.756,23.418 L7.247,1.872 C7.044,1.673 6.825,1.49 6.59,1.33 L6.59,1.33 Z"></path>
                    </g>
                    <g transform="translate(16.000000, 0.000000)" fill="#8DB3A9">
                        <path d="M4.678,0.519 L0.968,23.418 L2.713,23.418 L6.365,0.873 C5.844,0.654 5.273,0.538 4.678,0.519 L4.678,0.519 Z"></path>
                        <path d="M7.208,1.33 L3.629,23.418 L4.374,23.418 L7.864,1.872 C7.662,1.673 7.443,1.49 7.208,1.33 L7.208,1.33 Z"></path>
                    </g>
                    <g transform="translate(1.000000, 0.000000)" fill="#8DB3A9">
                        <path d="M4.298,0.519 L0.588,23.418 L2.332,23.418 L5.985,0.873 C5.464,0.654 4.894,0.538 4.298,0.519 L4.298,0.519 Z"></path>
                        <path d="M6.828,1.33 L3.249,23.418 L3.993,23.418 L7.484,1.872 C7.282,1.673 7.063,1.49 6.828,1.33 L6.828,1.33 Z"></path>
                    </g>
                </g>
                <rect id="Rectangle-path" fill="#68847D" x="13.271" y="103.87" width="35.527" height="19.672"></rect>
                <rect id="Rectangle-path" fill="#998675" x="2.446" y="126.526" width="77.317" height="10.482"></rect>
                <rect id="Rectangle-path" fill="#534741" x="54.035" y="103.87" width="14.912" height="29.589"></rect>
                <rect id="Rectangle-path" fill="#998675" x="2.446" y="59.44" width="77.317" height="3.652"></rect>
                <rect id="Rectangle-path" fill="#998675" x="2.446" y="94.811" width="77.317" height="3.652"></rect>
                <rect id="Rectangle-path" fill="#998675" x="2.446" y="22.195" width="77.317" height="3.652"></rect>
                <rect id="Rectangle-path" fill="#736357" x="0.991" y="16.384" width="80.227" height="6.924"></rect>
                <rect id="Rectangle-path" fill="#68847D" x="56.114" y="108.152" width="10.755" height="21.023"></rect>
                <g transform="translate(26.000000, 103.000000)" id="Shape" fill="#8DB3A9">
                    <path d="M10.198,0.792 L7.416,0.792 L0.416,20.542 L3.197,20.542 L10.198,0.792 Z"></path>
                    <path d="M13.327,0.792 L11.583,0.792 L4.583,20.542 L6.327,20.542 L13.327,0.792 Z"></path>
                </g>
                <g transform="translate(57.000000, 108.000000)" id="Shape" fill="#8DB3A9">
                    <path d="M7.641,0.025 L5.597,0.025 L0.453,21.176 L2.497,21.176 L7.641,0.025 Z"></path>
                    <path d="M9.941,0.025 L8.659,0.025 L3.515,21.176 L4.797,21.176 L9.941,0.025 Z"></path>
                </g>
                <g transform="translate(8.000000, 100.000000)">
                    <g transform="translate(0.000000, 11.000000)" id="Oval">
                        <circle fill="#F2F2F2" cx="63.244" cy="2.875" r="2.151"></circle>
                        <circle fill="#A82227" cx="58.941" cy="2.875" r="2.151"></circle>
                        <circle fill="#F2F2F2" cx="54.639" cy="2.875" r="2.151"></circle>
                        <circle fill="#A82227" cx="50.337" cy="2.875" r="2.151"></circle>
                        <circle fill="#F2F2F2" cx="46.035" cy="2.875" r="2.151"></circle>
                        <circle fill="#A82227" cx="41.732" cy="2.875" r="2.152"></circle>
                        <circle fill="#F2F2F2" cx="37.429" cy="2.875" r="2.151"></circle>
                        <circle fill="#A82227" cx="33.126" cy="2.875" r="2.152"></circle>
                        <circle fill="#F2F2F2" cx="28.823" cy="2.875" r="2.151"></circle>
                        <circle fill="#A82227" cx="24.521" cy="2.875" r="2.151"></circle>
                        <circle fill="#F2F2F2" cx="20.218" cy="2.875" r="2.151"></circle>
                        <circle fill="#A82227" cx="15.916" cy="2.875" r="2.151"></circle>
                        <circle fill="#F2F2F2" cx="11.613" cy="2.875" r="2.151"></circle>
                        <circle fill="#A82227" cx="7.311" cy="2.875" r="2.151"></circle>
                        <circle fill="#F2F2F2" cx="3.009" cy="2.875" r="2.151"></circle>
                    </g>
                    <rect id="Rectangle-path" fill="#C1272D" x="0.857" y="0.122" width="64.537" height="13.753"></rect>
                    <rect id="Rectangle-path" fill="#FFFFFF" x="61.093" y="0.122" width="4.302" height="13.753"></rect>
                    <rect id="Rectangle-path" fill="#FFFFFF" x="52.488" y="0.122" width="4.302" height="13.753"></rect>
                    <rect id="Rectangle-path" fill="#FFFFFF" x="43.884" y="0.122" width="4.302" height="13.753"></rect>
                    <rect id="Rectangle-path" fill="#FFFFFF" x="35.278" y="0.122" width="4.302" height="13.753"></rect>
                    <rect id="Rectangle-path" fill="#FFFFFF" x="26.672" y="0.122" width="4.302" height="13.753"></rect>
                    <rect id="Rectangle-path" fill="#FFFFFF" x="18.067" y="0.122" width="4.302" height="13.753"></rect>
                    <rect id="Rectangle-path" fill="#FFFFFF" x="9.462" y="0.122" width="4.302" height="13.753"></rect>
                    <rect id="Rectangle-path" fill="#FFFFFF" x="0.858" y="0.122" width="4.302" height="13.753"></rect>
                </g>
                <rect id="Rectangle-path" fill="#736357" x="51.812" y="134.076" width="19.359" height="2.933"></rect>
                <rect id="Rectangle-path" fill="#998675" x="13.271" y="2.622" width="24.911" height="13.762"></rect>
                <rect id="Rectangle-path" fill="#736357" x="12.352" y="0.459" width="26.75" height="2.163"></rect>
                <rect id="Rectangle-path" fill="#736357" x="51.179" y="133.459" width="20.625" height="0.617"></rect>
            </g>
            <g id="Group" transform="translate(111.000000, 83.000000)" sketch:type="MSShapeGroup">
                <rect id="Rectangle-path" fill="#8FEDD1" x="2.715" y="42.413" width="73.518" height="114.596"></rect>
                <rect id="Rectangle-path" fill="#754F38" x="6.947" y="10.707" width="65.045" height="29.475"></rect>
                <path d="M76.222,40.182 L76.222,7.317 L71.992,7.317 L71.992,40.182 L6.947,40.182 L6.947,7.317 L2.715,7.317 L2.715,40.182 L2.725,40.182 L2.725,44.413 L76.238,44.413 L76.238,40.182 L76.222,40.182 Z" id="Shape" fill="#593C2B"></path>
                <rect id="Rectangle-path" fill="#593C2B" x="56.114" y="0.045" width="6.085" height="21.701"></rect>
                <g transform="translate(11.000000, 51.000000)" id="Shape">
                    <path d="M10.064,23.609 L0.481,23.609 L0.481,5.363 C0.481,2.712 2.626,0.569 5.268,0.569 L5.268,0.569 C7.92,0.569 10.064,2.712 10.064,5.363 L10.064,23.609 L10.064,23.609 Z" fill="#68847D"></path>
                    <path d="M25.531,23.609 L15.947,23.609 L15.947,5.363 C15.947,2.712 18.092,0.569 20.737,0.569 L20.737,0.569 C23.389,0.569 25.532,2.712 25.532,5.363 L25.532,23.609 L25.531,23.609 Z" fill="#68847D"></path>
                    <path d="M40.998,23.609 L31.416,23.609 L31.416,5.363 C31.416,2.712 33.559,0.569 36.201,0.569 L36.201,0.569 C38.855,0.569 40.997,2.712 40.997,5.363 L40.997,23.609 L40.998,23.609 Z" fill="#68847D"></path>
                    <path d="M56.467,23.609 L46.881,23.609 L46.881,5.363 C46.881,2.712 49.026,0.569 51.671,0.569 L51.671,0.569 C54.323,0.569 56.468,2.712 56.468,5.363 L56.468,23.609 L56.467,23.609 Z" fill="#68847D"></path>
                    <g transform="translate(17.000000, 0.000000)" fill="#8DB3A9">
                        <path d="M3.869,0.575 L0.138,23.603 L2.051,23.603 L5.714,0.992 C5.149,0.738 4.526,0.592 3.869,0.575 L3.869,0.575 Z"></path>
                        <path d="M6.631,1.546 L3.058,23.604 L3.874,23.604 L7.34,2.208 C7.125,1.963 6.891,1.742 6.631,1.546 L6.631,1.546 Z"></path>
                    </g>
                    <g transform="translate(1.000000, 0.000000)" fill="#8DB3A9">
                        <path d="M4.402,0.575 L0.671,23.603 L2.584,23.603 L6.247,0.992 C5.682,0.738 5.06,0.592 4.402,0.575 L4.402,0.575 Z"></path>
                        <path d="M7.164,1.546 L3.591,23.604 L4.407,23.604 L7.873,2.208 C7.659,1.963 7.424,1.742 7.164,1.546 L7.164,1.546 Z"></path>
                    </g>
                    <g transform="translate(32.000000, 0.000000)" fill="#8DB3A9">
                        <path d="M4.337,0.575 L0.606,23.603 L2.519,23.603 L6.182,0.992 C5.617,0.738 4.994,0.592 4.337,0.575 L4.337,0.575 Z"></path>
                        <path d="M7.099,1.546 L3.526,23.604 L4.342,23.604 L7.808,2.208 C7.593,1.963 7.358,1.742 7.099,1.546 L7.099,1.546 Z"></path>
                    </g>
                    <g transform="translate(48.000000, 0.000000)" fill="#8DB3A9">
                        <path d="M3.804,0.575 L0.073,23.603 L1.986,23.603 L5.649,0.992 C5.083,0.738 4.461,0.592 3.804,0.575 L3.804,0.575 Z"></path>
                        <path d="M6.565,1.546 L2.992,23.604 L3.808,23.604 L7.274,2.208 C7.06,1.963 6.825,1.742 6.565,1.546 L6.565,1.546 Z"></path>
                    </g>
                </g>
                <g transform="translate(11.000000, 85.000000)" id="Shape">
                    <path d="M10.064,23.164 L0.481,23.164 L0.481,4.918 C0.481,2.266 2.626,0.123 5.268,0.123 L5.268,0.123 C7.92,0.123 10.064,2.266 10.064,4.918 L10.064,23.164 L10.064,23.164 Z" fill="#68847D"></path>
                    <path d="M25.531,23.164 L15.947,23.164 L15.947,4.918 C15.947,2.266 18.092,0.123 20.737,0.123 L20.737,0.123 C23.389,0.123 25.532,2.266 25.532,4.918 L25.532,23.164 L25.531,23.164 Z" fill="#68847D"></path>
                    <path d="M40.998,23.164 L31.416,23.164 L31.416,4.918 C31.416,2.266 33.559,0.123 36.201,0.123 L36.201,0.123 C38.855,0.123 40.997,2.266 40.997,4.918 L40.997,23.164 L40.998,23.164 Z" fill="#68847D"></path>
                    <path d="M56.467,23.164 L46.881,23.164 L46.881,4.918 C46.881,2.266 49.026,0.123 51.671,0.123 L51.671,0.123 C54.323,0.123 56.468,2.266 56.468,4.918 L56.468,23.164 L56.467,23.164 Z" fill="#68847D"></path>
                    <g transform="translate(17.000000, 0.000000)" fill="#8DB3A9">
                        <path d="M3.869,0.129 L0.138,23.157 L2.051,23.157 L5.714,0.547 C5.149,0.292 4.526,0.146 3.869,0.129 L3.869,0.129 Z"></path>
                        <path d="M6.631,1.1 L3.058,23.158 L3.874,23.158 L7.34,1.762 C7.125,1.518 6.891,1.297 6.631,1.1 L6.631,1.1 Z"></path>
                    </g>
                    <g transform="translate(1.000000, 0.000000)" fill="#8DB3A9">
                        <path d="M4.402,0.129 L0.671,23.157 L2.584,23.157 L6.247,0.547 C5.682,0.292 5.06,0.146 4.402,0.129 L4.402,0.129 Z"></path>
                        <path d="M7.164,1.1 L3.591,23.158 L4.407,23.158 L7.873,1.762 C7.659,1.518 7.424,1.297 7.164,1.1 L7.164,1.1 Z"></path>
                    </g>
                    <g transform="translate(32.000000, 0.000000)" fill="#8DB3A9">
                        <path d="M4.337,0.129 L0.606,23.157 L2.519,23.157 L6.182,0.547 C5.617,0.292 4.994,0.146 4.337,0.129 L4.337,0.129 Z"></path>
                        <path d="M7.099,1.1 L3.526,23.158 L4.342,23.158 L7.808,1.762 C7.593,1.518 7.358,1.297 7.099,1.1 L7.099,1.1 Z"></path>
                    </g>
                    <g transform="translate(48.000000, 0.000000)" fill="#8DB3A9">
                        <path d="M3.804,0.129 L0.073,23.157 L1.986,23.157 L5.649,0.547 C5.083,0.292 4.461,0.146 3.804,0.129 L3.804,0.129 Z"></path>
                        <path d="M6.565,1.1 L2.992,23.158 L3.808,23.158 L7.274,1.762 C7.06,1.518 6.825,1.297 6.565,1.1 L6.565,1.1 Z"></path>
                    </g>
                </g>
                <rect id="Rectangle-path" fill="#68847D" x="42.226" y="123.685" width="9.583" height="18.246"></rect>
                <rect id="Rectangle-path" fill="#68847D" x="57.88" y="123.685" width="9.586" height="18.246"></rect>
                <rect id="Rectangle-path" fill="#7ED1B8" x="0.596" y="146.504" width="77.748" height="10.505"></rect>
                <rect id="Rectangle-path" fill="#754F38" x="11.48" y="123.685" width="15.466" height="28.732"></rect>
                <path d="M19.216,148.164 L19.212,148.164 C16.566,148.164 14.422,146.019 14.422,143.374 L14.422,132.728 C14.422,130.082 16.567,127.938 19.212,127.938 L19.216,127.938 C21.862,127.938 24.006,130.083 24.006,132.728 L24.006,143.374 C24.005,146.02 21.861,148.164 19.216,148.164 L19.216,148.164 Z" id="Shape" fill="#68847D"></path>
                <path d="M9.901,152.167 L9.901,153.084 L10.645,153.084 L10.645,157.009 L27.783,157.009 L27.783,153.084 L28.526,153.084 L28.526,152.167 L9.901,152.167 Z" id="Shape" fill="#593C2B"></path>
                <path d="M35.531,128.792 L32.739,128.792 C32.187,128.792 31.739,128.344 31.739,127.792 L31.739,124.685 C31.739,124.133 32.187,123.685 32.739,123.685 L35.531,123.685 C36.083,123.685 36.531,124.133 36.531,124.685 L36.531,127.792 C36.531,128.344 36.083,128.792 35.531,128.792 L35.531,128.792 Z" id="Shape" fill="#7ED1B8"></path>
                <rect id="Rectangle-path" fill="#7ED1B8" x="0.596" y="113.792" width="77.748" height="3.5"></rect>
                <path d="M37.745,22.669 L19.773,35.292 L59.166,35.292 L41.194,22.669 C40.159,21.942 38.78,21.942 37.745,22.669 L37.745,22.669 Z" id="Shape" fill="#7ED1B8"></path>
                <path d="M38.32,26.252 L25.449,35.292 L53.49,35.292 L40.619,26.252 C39.929,25.767 39.01,25.767 38.32,26.252 L38.32,26.252 Z" id="Shape" fill="#8FEDD1"></path>
                <g transform="translate(43.000000, 123.000000)" id="Shape" fill="#8DB3A9">
                    <path d="M3.626,0.685 L0.67,18.931 L2.585,18.931 L5.542,0.685 L3.626,0.685 Z"></path>
                    <path d="M6.549,0.685 L3.593,18.931 L4.41,18.931 L7.366,0.685 L6.549,0.685 Z"></path>
                </g>
                <g transform="translate(16.000000, 127.000000)" id="Shape" fill="#8DB3A9">
                    <path d="M3.216,0.938 L3.212,0.938 C3.039,0.938 2.876,0.971 2.708,0.989 L0.128,20.012 C0.643,20.45 1.247,20.776 1.915,20.964 L4.6,1.165 C4.159,1.031 3.7,0.938 3.216,0.938 L3.216,0.938 Z"></path>
                    <path d="M5.552,1.57 L2.9,21.132 C3.005,21.139 3.106,21.163 3.212,21.163 L3.216,21.163 C3.388,21.163 3.551,21.13 3.719,21.112 L6.299,2.089 C6.067,1.893 5.819,1.721 5.552,1.57 L5.552,1.57 Z"></path>
                </g>
                <g transform="translate(59.000000, 123.000000)" id="Shape" fill="#8DB3A9">
                    <path d="M3.282,0.685 L0.326,18.931 L2.241,18.931 L5.197,0.685 L3.282,0.685 Z"></path>
                    <path d="M6.205,0.685 L3.249,18.931 L4.065,18.931 L7.021,0.685 L6.205,0.685 Z"></path>
                </g>
            </g>
            <g id="Group" transform="translate(419.000000, 86.000000)" sketch:type="MSShapeGroup">
                <rect id="Rectangle-path" fill="#FDC17F" x="2.081" y="44.413" width="73.518" height="109.596"></rect>
                <rect id="Rectangle-path" fill="#EBB375" x="2.081" y="115.124" width="73.518" height="38.885"></rect>
                <rect id="Rectangle-path" fill="#754F38" x="6.313" y="10.707" width="65.044" height="29.475"></rect>
                <path d="M75.59,40.182 L75.59,7.317 L71.357,7.317 L71.357,40.182 L6.313,40.182 L6.313,7.317 L2.081,7.317 L2.081,40.182 L2.09,40.182 L2.09,44.413 L75.605,44.413 L75.605,40.182 L75.59,40.182 Z" id="Shape" fill="#593C2B"></path>
                <rect id="Rectangle-path" fill="#FDC17F" x="53.533" y="3.918" width="6.032" height="19.828"></rect>
                <rect id="Rectangle-path" fill="#FDC17F" x="47.503" y="0.793" width="3.33" height="19.828"></rect>
                <g transform="translate(10.000000, 52.000000)" id="Shape">
                    <path d="M10.43,23.609 L0.846,23.609 L0.846,5.363 C0.846,2.712 2.991,0.569 5.633,0.569 L5.633,0.569 C8.285,0.569 10.43,2.712 10.43,5.363 L10.43,23.609 L10.43,23.609 Z" fill="#68847D"></path>
                    <path d="M25.896,23.609 L16.312,23.609 L16.312,5.363 C16.312,2.712 18.457,0.569 21.101,0.569 L21.101,0.569 C23.753,0.569 25.896,2.712 25.896,5.363 L25.896,23.609 L25.896,23.609 Z" fill="#68847D"></path>
                    <path d="M41.363,23.609 L31.781,23.609 L31.781,5.363 C31.781,2.712 33.924,0.569 36.566,0.569 L36.566,0.569 C39.22,0.569 41.363,2.712 41.363,5.363 L41.363,23.609 L41.363,23.609 Z" fill="#68847D"></path>
                    <path d="M56.832,23.609 L47.246,23.609 L47.246,5.363 C47.246,2.712 49.391,0.569 52.035,0.569 L52.035,0.569 C54.687,0.569 56.832,2.712 56.832,5.363 L56.832,23.609 L56.832,23.609 Z" fill="#68847D"></path>
                    <g transform="translate(17.000000, 0.000000)" fill="#8DB3A9">
                        <path d="M4.234,0.576 L0.504,23.603 L2.417,23.603 L6.08,0.993 C5.515,0.738 4.893,0.592 4.234,0.576 L4.234,0.576 Z"></path>
                        <path d="M6.997,1.547 L3.423,23.604 L4.239,23.604 L7.706,2.208 C7.491,1.964 7.256,1.742 6.997,1.547 L6.997,1.547 Z"></path>
                    </g>
                    <g transform="translate(2.000000, 0.000000)" fill="#8DB3A9">
                        <path d="M3.769,0.576 L0.038,23.603 L1.951,23.603 L5.614,0.993 C5.048,0.738 4.426,0.592 3.769,0.576 L3.769,0.576 Z"></path>
                        <path d="M6.53,1.547 L2.956,23.604 L3.772,23.604 L7.239,2.208 C7.024,1.964 6.789,1.742 6.53,1.547 L6.53,1.547 Z"></path>
                    </g>
                    <g transform="translate(32.000000, 0.000000)" fill="#8DB3A9">
                        <path d="M4.703,0.576 L0.972,23.603 L2.885,23.603 L6.548,0.993 C5.982,0.738 5.36,0.592 4.703,0.576 L4.703,0.576 Z"></path>
                        <path d="M7.465,1.547 L3.891,23.604 L4.707,23.604 L8.174,2.208 C7.959,1.964 7.724,1.742 7.465,1.547 L7.465,1.547 Z"></path>
                    </g>
                    <g transform="translate(48.000000, 0.000000)" fill="#8DB3A9">
                        <path d="M4.17,0.576 L0.439,23.603 L2.352,23.603 L6.015,0.993 C5.449,0.738 4.827,0.592 4.17,0.576 L4.17,0.576 Z"></path>
                        <path d="M6.932,1.547 L3.358,23.604 L4.174,23.604 L7.641,2.208 C7.426,1.964 7.19,1.742 6.932,1.547 L6.932,1.547 Z"></path>
                    </g>
                </g>
                <g transform="translate(10.000000, 87.000000)" id="Shape">
                    <path d="M10.43,23.164 L0.846,23.164 L0.846,4.918 C0.846,2.266 2.991,0.123 5.633,0.123 L5.633,0.123 C8.285,0.123 10.43,2.266 10.43,4.918 L10.43,23.164 L10.43,23.164 Z" fill="#68847D"></path>
                    <path d="M25.896,23.164 L16.312,23.164 L16.312,4.918 C16.312,2.266 18.457,0.123 21.101,0.123 L21.101,0.123 C23.753,0.123 25.896,2.266 25.896,4.918 L25.896,23.164 L25.896,23.164 Z" fill="#68847D"></path>
                    <path d="M41.363,23.164 L31.781,23.164 L31.781,4.918 C31.781,2.266 33.924,0.123 36.566,0.123 L36.566,0.123 C39.22,0.123 41.363,2.266 41.363,4.918 L41.363,23.164 L41.363,23.164 Z" fill="#68847D"></path>
                    <path d="M56.832,23.164 L47.246,23.164 L47.246,4.918 C47.246,2.266 49.391,0.123 52.035,0.123 L52.035,0.123 C54.687,0.123 56.832,2.266 56.832,4.918 L56.832,23.164 L56.832,23.164 Z" fill="#68847D"></path>
                    <g transform="translate(17.000000, 0.000000)" fill="#8DB3A9">
                        <path d="M4.234,0.13 L0.504,23.158 L2.417,23.158 L6.08,0.547 C5.515,0.293 4.893,0.146 4.234,0.13 L4.234,0.13 Z"></path>
                        <path d="M6.997,1.101 L3.423,23.159 L4.239,23.159 L7.706,1.763 C7.491,1.518 7.256,1.297 6.997,1.101 L6.997,1.101 Z"></path>
                    </g>
                    <g transform="translate(2.000000, 0.000000)" fill="#8DB3A9">
                        <path d="M3.769,0.13 L0.038,23.158 L1.951,23.158 L5.614,0.547 C5.048,0.293 4.426,0.146 3.769,0.13 L3.769,0.13 Z"></path>
                        <path d="M6.53,1.101 L2.956,23.159 L3.772,23.159 L7.239,1.763 C7.024,1.518 6.789,1.297 6.53,1.101 L6.53,1.101 Z"></path>
                    </g>
                    <g transform="translate(32.000000, 0.000000)" fill="#8DB3A9">
                        <path d="M4.703,0.13 L0.972,23.158 L2.885,23.158 L6.548,0.547 C5.982,0.293 5.36,0.146 4.703,0.13 L4.703,0.13 Z"></path>
                        <path d="M7.465,1.101 L3.891,23.159 L4.707,23.159 L8.174,1.763 C7.959,1.518 7.724,1.297 7.465,1.101 L7.465,1.101 Z"></path>
                    </g>
                    <g transform="translate(48.000000, 0.000000)" fill="#8DB3A9">
                        <path d="M4.17,0.13 L0.439,23.158 L2.352,23.158 L6.015,0.547 C5.449,0.293 4.827,0.146 4.17,0.13 L4.17,0.13 Z"></path>
                        <path d="M6.932,1.101 L3.358,23.159 L4.174,23.159 L7.641,1.763 C7.426,1.518 7.19,1.297 6.932,1.101 L6.932,1.101 Z"></path>
                    </g>
                </g>
                <g transform="translate(10.000000, 120.000000)" id="Shape">
                    <path d="M10.43,23.726 L0.846,23.726 L0.846,5.48 C0.846,2.829 2.991,0.686 5.633,0.686 L5.633,0.686 C8.285,0.686 10.43,2.829 10.43,5.48 L10.43,23.726 L10.43,23.726 Z" fill="#68847D"></path>
                    <path d="M25.896,23.726 L16.312,23.726 L16.312,5.48 C16.312,2.829 18.457,0.686 21.101,0.686 L21.101,0.686 C23.753,0.686 25.896,2.829 25.896,5.48 L25.896,23.726 L25.896,23.726 Z" fill="#68847D"></path>
                    <path d="M41.363,23.726 L31.781,23.726 L31.781,5.48 C31.781,2.829 33.924,0.686 36.566,0.686 L36.566,0.686 C39.22,0.686 41.363,2.829 41.363,5.48 L41.363,23.726 L41.363,23.726 Z" fill="#68847D"></path>
                    <path d="M56.832,23.726 L47.246,23.726 L47.246,5.48 C47.246,2.829 49.391,0.686 52.035,0.686 L52.035,0.686 C54.687,0.686 56.832,2.829 56.832,5.48 L56.832,23.726 L56.832,23.726 Z" fill="#68847D"></path>
                    <g transform="translate(17.000000, 0.000000)" fill="#8DB3A9">
                        <path d="M4.234,0.691 L0.504,23.719 L2.417,23.719 L6.08,1.109 C5.515,0.854 4.893,0.709 4.234,0.691 L4.234,0.691 Z"></path>
                        <path d="M6.997,1.662 L3.423,23.72 L4.239,23.72 L7.706,2.324 C7.491,2.08 7.256,1.859 6.997,1.662 L6.997,1.662 Z"></path>
                    </g>
                    <g transform="translate(2.000000, 0.000000)" fill="#8DB3A9">
                        <path d="M3.769,0.691 L0.038,23.719 L1.951,23.719 L5.614,1.109 C5.048,0.854 4.426,0.709 3.769,0.691 L3.769,0.691 Z"></path>
                        <path d="M6.53,1.662 L2.956,23.72 L3.772,23.72 L7.239,2.324 C7.024,2.08 6.789,1.859 6.53,1.662 L6.53,1.662 Z"></path>
                    </g>
                    <g transform="translate(32.000000, 0.000000)" fill="#8DB3A9">
                        <path d="M4.703,0.691 L0.972,23.719 L2.885,23.719 L6.548,1.109 C5.982,0.854 5.36,0.709 4.703,0.691 L4.703,0.691 Z"></path>
                        <path d="M7.465,1.662 L3.891,23.72 L4.707,23.72 L8.174,2.324 C7.959,2.08 7.724,1.859 7.465,1.662 L7.465,1.662 Z"></path>
                    </g>
                    <g transform="translate(48.000000, 0.000000)" fill="#8DB3A9">
                        <path d="M4.17,0.691 L0.439,23.719 L2.352,23.719 L6.015,1.109 C5.449,0.854 4.827,0.709 4.17,0.691 L4.17,0.691 Z"></path>
                        <path d="M6.932,1.662 L3.358,23.72 L4.174,23.72 L7.641,2.324 C7.426,2.08 7.19,1.859 6.932,1.662 L6.932,1.662 Z"></path>
                    </g>
                </g>
                <rect id="Rectangle-path" fill="#EBB375" x="0.59" y="80.207" width="76.5" height="2.506"></rect>
            </g>
            <g id="Group" transform="translate(419.000000, 86.000000)" sketch:type="MSShapeGroup">
                <rect id="Rectangle-path" fill="#FDC17F" x="2.081" y="44.413" width="73.518" height="109.596"></rect>
                <rect id="Rectangle-path" fill="#EBB375" x="2.081" y="115.124" width="73.518" height="38.885"></rect>
                <rect id="Rectangle-path" fill="#754F38" x="6.313" y="10.707" width="65.044" height="29.475"></rect>
                <path d="M75.59,40.182 L75.59,7.317 L71.357,7.317 L71.357,40.182 L6.313,40.182 L6.313,7.317 L2.081,7.317 L2.081,40.182 L2.09,40.182 L2.09,44.413 L75.605,44.413 L75.605,40.182 L75.59,40.182 Z" id="Shape" fill="#593C2B"></path>
                <rect id="Rectangle-path" fill="#FDC17F" x="53.533" y="3.918" width="6.032" height="19.828"></rect>
                <rect id="Rectangle-path" fill="#FDC17F" x="47.503" y="0.793" width="3.33" height="19.828"></rect>
                <g transform="translate(10.000000, 52.000000)" id="Shape">
                    <path d="M10.43,23.609 L0.846,23.609 L0.846,5.363 C0.846,2.712 2.991,0.569 5.633,0.569 L5.633,0.569 C8.285,0.569 10.43,2.712 10.43,5.363 L10.43,23.609 L10.43,23.609 Z" fill="#68847D"></path>
                    <path d="M25.896,23.609 L16.312,23.609 L16.312,5.363 C16.312,2.712 18.457,0.569 21.101,0.569 L21.101,0.569 C23.753,0.569 25.896,2.712 25.896,5.363 L25.896,23.609 L25.896,23.609 Z" fill="#68847D"></path>
                    <path d="M41.363,23.609 L31.781,23.609 L31.781,5.363 C31.781,2.712 33.924,0.569 36.566,0.569 L36.566,0.569 C39.22,0.569 41.363,2.712 41.363,5.363 L41.363,23.609 L41.363,23.609 Z" fill="#68847D"></path>
                    <path d="M56.832,23.609 L47.246,23.609 L47.246,5.363 C47.246,2.712 49.391,0.569 52.035,0.569 L52.035,0.569 C54.687,0.569 56.832,2.712 56.832,5.363 L56.832,23.609 L56.832,23.609 Z" fill="#68847D"></path>
                    <g transform="translate(17.000000, 0.000000)" fill="#8DB3A9">
                        <path d="M4.234,0.576 L0.504,23.603 L2.417,23.603 L6.08,0.993 C5.515,0.738 4.893,0.592 4.234,0.576 L4.234,0.576 Z"></path>
                        <path d="M6.997,1.547 L3.423,23.604 L4.239,23.604 L7.706,2.208 C7.491,1.964 7.256,1.742 6.997,1.547 L6.997,1.547 Z"></path>
                    </g>
                    <g transform="translate(2.000000, 0.000000)" fill="#8DB3A9">
                        <path d="M3.769,0.576 L0.038,23.603 L1.951,23.603 L5.614,0.993 C5.048,0.738 4.426,0.592 3.769,0.576 L3.769,0.576 Z"></path>
                        <path d="M6.53,1.547 L2.956,23.604 L3.772,23.604 L7.239,2.208 C7.024,1.964 6.789,1.742 6.53,1.547 L6.53,1.547 Z"></path>
                    </g>
                    <g transform="translate(32.000000, 0.000000)" fill="#8DB3A9">
                        <path d="M4.703,0.576 L0.972,23.603 L2.885,23.603 L6.548,0.993 C5.982,0.738 5.36,0.592 4.703,0.576 L4.703,0.576 Z"></path>
                        <path d="M7.465,1.547 L3.891,23.604 L4.707,23.604 L8.174,2.208 C7.959,1.964 7.724,1.742 7.465,1.547 L7.465,1.547 Z"></path>
                    </g>
                    <g transform="translate(48.000000, 0.000000)" fill="#8DB3A9">
                        <path d="M4.17,0.576 L0.439,23.603 L2.352,23.603 L6.015,0.993 C5.449,0.738 4.827,0.592 4.17,0.576 L4.17,0.576 Z"></path>
                        <path d="M6.932,1.547 L3.358,23.604 L4.174,23.604 L7.641,2.208 C7.426,1.964 7.19,1.742 6.932,1.547 L6.932,1.547 Z"></path>
                    </g>
                </g>
                <g transform="translate(10.000000, 87.000000)" id="Shape">
                    <path d="M10.43,23.164 L0.846,23.164 L0.846,4.918 C0.846,2.266 2.991,0.123 5.633,0.123 L5.633,0.123 C8.285,0.123 10.43,2.266 10.43,4.918 L10.43,23.164 L10.43,23.164 Z" fill="#68847D"></path>
                    <path d="M25.896,23.164 L16.312,23.164 L16.312,4.918 C16.312,2.266 18.457,0.123 21.101,0.123 L21.101,0.123 C23.753,0.123 25.896,2.266 25.896,4.918 L25.896,23.164 L25.896,23.164 Z" fill="#68847D"></path>
                    <path d="M41.363,23.164 L31.781,23.164 L31.781,4.918 C31.781,2.266 33.924,0.123 36.566,0.123 L36.566,0.123 C39.22,0.123 41.363,2.266 41.363,4.918 L41.363,23.164 L41.363,23.164 Z" fill="#68847D"></path>
                    <path d="M56.832,23.164 L47.246,23.164 L47.246,4.918 C47.246,2.266 49.391,0.123 52.035,0.123 L52.035,0.123 C54.687,0.123 56.832,2.266 56.832,4.918 L56.832,23.164 L56.832,23.164 Z" fill="#68847D"></path>
                    <g transform="translate(17.000000, 0.000000)" fill="#8DB3A9">
                        <path d="M4.234,0.13 L0.504,23.158 L2.417,23.158 L6.08,0.547 C5.515,0.293 4.893,0.146 4.234,0.13 L4.234,0.13 Z"></path>
                        <path d="M6.997,1.101 L3.423,23.159 L4.239,23.159 L7.706,1.763 C7.491,1.518 7.256,1.297 6.997,1.101 L6.997,1.101 Z"></path>
                    </g>
                    <g transform="translate(2.000000, 0.000000)" fill="#8DB3A9">
                        <path d="M3.769,0.13 L0.038,23.158 L1.951,23.158 L5.614,0.547 C5.048,0.293 4.426,0.146 3.769,0.13 L3.769,0.13 Z"></path>
                        <path d="M6.53,1.101 L2.956,23.159 L3.772,23.159 L7.239,1.763 C7.024,1.518 6.789,1.297 6.53,1.101 L6.53,1.101 Z"></path>
                    </g>
                    <g transform="translate(32.000000, 0.000000)" fill="#8DB3A9">
                        <path d="M4.703,0.13 L0.972,23.158 L2.885,23.158 L6.548,0.547 C5.982,0.293 5.36,0.146 4.703,0.13 L4.703,0.13 Z"></path>
                        <path d="M7.465,1.101 L3.891,23.159 L4.707,23.159 L8.174,1.763 C7.959,1.518 7.724,1.297 7.465,1.101 L7.465,1.101 Z"></path>
                    </g>
                    <g transform="translate(48.000000, 0.000000)" fill="#8DB3A9">
                        <path d="M4.17,0.13 L0.439,23.158 L2.352,23.158 L6.015,0.547 C5.449,0.293 4.827,0.146 4.17,0.13 L4.17,0.13 Z"></path>
                        <path d="M6.932,1.101 L3.358,23.159 L4.174,23.159 L7.641,1.763 C7.426,1.518 7.19,1.297 6.932,1.101 L6.932,1.101 Z"></path>
                    </g>
                </g>
                <g transform="translate(10.000000, 120.000000)" id="Shape">
                    <path d="M10.43,23.726 L0.846,23.726 L0.846,5.48 C0.846,2.829 2.991,0.686 5.633,0.686 L5.633,0.686 C8.285,0.686 10.43,2.829 10.43,5.48 L10.43,23.726 L10.43,23.726 Z" fill="#68847D"></path>
                    <path d="M25.896,23.726 L16.312,23.726 L16.312,5.48 C16.312,2.829 18.457,0.686 21.101,0.686 L21.101,0.686 C23.753,0.686 25.896,2.829 25.896,5.48 L25.896,23.726 L25.896,23.726 Z" fill="#68847D"></path>
                    <path d="M41.363,23.726 L31.781,23.726 L31.781,5.48 C31.781,2.829 33.924,0.686 36.566,0.686 L36.566,0.686 C39.22,0.686 41.363,2.829 41.363,5.48 L41.363,23.726 L41.363,23.726 Z" fill="#68847D"></path>
                    <path d="M56.832,23.726 L47.246,23.726 L47.246,5.48 C47.246,2.829 49.391,0.686 52.035,0.686 L52.035,0.686 C54.687,0.686 56.832,2.829 56.832,5.48 L56.832,23.726 L56.832,23.726 Z" fill="#68847D"></path>
                    <g transform="translate(17.000000, 0.000000)" fill="#8DB3A9">
                        <path d="M4.234,0.691 L0.504,23.719 L2.417,23.719 L6.08,1.109 C5.515,0.854 4.893,0.709 4.234,0.691 L4.234,0.691 Z"></path>
                        <path d="M6.997,1.662 L3.423,23.72 L4.239,23.72 L7.706,2.324 C7.491,2.08 7.256,1.859 6.997,1.662 L6.997,1.662 Z"></path>
                    </g>
                    <g transform="translate(2.000000, 0.000000)" fill="#8DB3A9">
                        <path d="M3.769,0.691 L0.038,23.719 L1.951,23.719 L5.614,1.109 C5.048,0.854 4.426,0.709 3.769,0.691 L3.769,0.691 Z"></path>
                        <path d="M6.53,1.662 L2.956,23.72 L3.772,23.72 L7.239,2.324 C7.024,2.08 6.789,1.859 6.53,1.662 L6.53,1.662 Z"></path>
                    </g>
                    <g transform="translate(32.000000, 0.000000)" fill="#8DB3A9">
                        <path d="M4.703,0.691 L0.972,23.719 L2.885,23.719 L6.548,1.109 C5.982,0.854 5.36,0.709 4.703,0.691 L4.703,0.691 Z"></path>
                        <path d="M7.465,1.662 L3.891,23.72 L4.707,23.72 L8.174,2.324 C7.959,2.08 7.724,1.859 7.465,1.662 L7.465,1.662 Z"></path>
                    </g>
                    <g transform="translate(48.000000, 0.000000)" fill="#8DB3A9">
                        <path d="M4.17,0.691 L0.439,23.719 L2.352,23.719 L6.015,1.109 C5.449,0.854 4.827,0.709 4.17,0.691 L4.17,0.691 Z"></path>
                        <path d="M6.932,1.662 L3.358,23.72 L4.174,23.72 L7.641,2.324 C7.426,2.08 7.19,1.859 6.932,1.662 L6.932,1.662 Z"></path>
                    </g>
                </g>
                <rect id="Rectangle-path" fill="#EBB375" x="0.59" y="80.207" width="76.5" height="2.506"></rect>
            </g>
            <g id="Group" transform="translate(364.000000, 54.000000)" sketch:type="MSShapeGroup">
                <path d="M2.905,76.413 L2.905,43.417 L76.424,43.417 L76.424,153.014 L76.423,153.014 L76.423,186.009 L2.904,186.009 L2.904,76.413 L2.905,76.413 Z" id="Shape" fill="#F88A6B"></path>
                <path d="M2.905,59.625 L2.905,43.417 L76.424,43.417 L76.424,97.252 L76.423,97.252 L76.423,113.46 L2.904,113.46 L2.904,59.625 L2.905,59.625 Z" id="Shape" fill="#FF9C80"></path>
                <rect id="Rectangle-path" fill="#68847D" x="52.188" y="152.686" width="15.469" height="18.246"></rect>
                <rect id="Rectangle-path" fill="#68847D" x="11.67" y="152.686" width="15.468" height="18.246"></rect>
                <rect id="Rectangle-path" fill="#534741" x="0.793" y="175.504" width="77.749" height="10.505"></rect>
                <rect id="Rectangle-path" fill="#534741" x="7.139" y="9.712" width="65.045" height="29.474"></rect>
                <path d="M76.415,39.186 L76.415,6.321 L72.184,6.321 L72.184,39.186 L7.139,39.186 L7.139,6.321 L2.905,6.321 L2.905,39.186 L2.915,39.186 L2.915,43.417 L76.431,43.417 L76.431,39.186 L76.415,39.186 Z" id="Shape" fill="#736357"></path>
                <rect id="Rectangle-path" fill="#F88A6B" x="23.657" y="0.05" width="3.986" height="18.7"></rect>
                <rect id="Rectangle-path" fill="#F88A6B" x="16.463" y="0.05" width="3.986" height="18.7"></rect>
                <g transform="translate(11.000000, 52.000000)" id="Shape">
                    <path d="M10.255,23.413 L0.671,23.413 L0.671,5.167 C0.671,2.516 2.816,0.373 5.458,0.373 L5.458,0.373 C8.11,0.373 10.255,2.516 10.255,5.167 L10.255,23.413 L10.255,23.413 Z" fill="#68847D"></path>
                    <path d="M25.722,23.413 L16.138,23.413 L16.138,5.167 C16.138,2.516 18.283,0.373 20.927,0.373 L20.927,0.373 C23.579,0.373 25.722,2.516 25.722,5.167 L25.722,23.413 L25.722,23.413 Z" fill="#68847D"></path>
                    <path d="M41.188,23.413 L31.606,23.413 L31.606,5.167 C31.606,2.516 33.749,0.373 36.391,0.373 L36.391,0.373 C39.045,0.373 41.188,2.516 41.188,5.167 L41.188,23.413 L41.188,23.413 Z" fill="#68847D"></path>
                    <path d="M56.657,23.413 L47.071,23.413 L47.071,5.167 C47.071,2.516 49.216,0.373 51.86,0.373 L51.86,0.373 C54.512,0.373 56.657,2.516 56.657,5.167 L56.657,23.413 L56.657,23.413 Z" fill="#68847D"></path>
                    <g transform="translate(17.000000, 0.000000)" fill="#8DB3A9">
                        <path d="M4.06,0.379 L0.329,23.407 L2.243,23.407 L5.905,0.797 C5.339,0.542 4.717,0.396 4.06,0.379 L4.06,0.379 Z"></path>
                        <path d="M6.821,1.35 L3.248,23.407 L4.064,23.407 L7.53,2.011 C7.315,1.768 7.081,1.546 6.821,1.35 L6.821,1.35 Z"></path>
                    </g>
                    <g transform="translate(1.000000, 0.000000)" fill="#8DB3A9">
                        <path d="M4.593,0.379 L0.863,23.407 L2.776,23.407 L6.439,0.797 C5.872,0.542 5.25,0.396 4.593,0.379 L4.593,0.379 Z"></path>
                        <path d="M7.354,1.35 L3.781,23.407 L4.597,23.407 L8.063,2.011 C7.85,1.768 7.614,1.546 7.354,1.35 L7.354,1.35 Z"></path>
                    </g>
                    <g transform="translate(32.000000, 0.000000)" fill="#8DB3A9">
                        <path d="M4.527,0.379 L0.797,23.407 L2.709,23.407 L6.373,0.797 C5.807,0.542 5.185,0.396 4.527,0.379 L4.527,0.379 Z"></path>
                        <path d="M7.289,1.35 L3.716,23.407 L4.532,23.407 L7.998,2.011 C7.783,1.768 7.549,1.546 7.289,1.35 L7.289,1.35 Z"></path>
                    </g>
                    <g transform="translate(48.000000, 0.000000)" fill="#8DB3A9">
                        <path d="M3.994,0.379 L0.264,23.407 L2.177,23.407 L5.84,0.797 C5.273,0.542 4.651,0.396 3.994,0.379 L3.994,0.379 Z"></path>
                        <path d="M6.756,1.35 L3.183,23.407 L3.999,23.407 L7.465,2.011 C7.25,1.768 7.016,1.546 6.756,1.35 L6.756,1.35 Z"></path>
                    </g>
                </g>
                <g transform="translate(11.000000, 83.000000)" id="Shape">
                    <path d="M10.255,23.397 L0.671,23.397 L0.671,5.151 C0.671,2.5 2.816,0.357 5.458,0.357 L5.458,0.357 C8.11,0.357 10.255,2.5 10.255,5.151 L10.255,23.397 L10.255,23.397 Z" fill="#68847D"></path>
                    <path d="M25.722,23.397 L16.138,23.397 L16.138,5.151 C16.138,2.5 18.283,0.357 20.927,0.357 L20.927,0.357 C23.579,0.357 25.722,2.5 25.722,5.151 L25.722,23.397 L25.722,23.397 Z" fill="#68847D"></path>
                    <path d="M41.188,23.397 L31.606,23.397 L31.606,5.151 C31.606,2.5 33.749,0.357 36.391,0.357 L36.391,0.357 C39.045,0.357 41.188,2.5 41.188,5.151 L41.188,23.397 L41.188,23.397 Z" fill="#68847D"></path>
                    <path d="M56.657,23.397 L47.071,23.397 L47.071,5.151 C47.071,2.5 49.216,0.357 51.86,0.357 L51.86,0.357 C54.512,0.357 56.657,2.5 56.657,5.151 L56.657,23.397 L56.657,23.397 Z" fill="#68847D"></path>
                    <g transform="translate(17.000000, 0.000000)" fill="#8DB3A9">
                        <path d="M4.06,0.363 L0.329,23.39 L2.243,23.39 L5.905,0.781 C5.339,0.525 4.717,0.381 4.06,0.363 L4.06,0.363 Z"></path>
                        <path d="M6.821,1.334 L3.248,23.391 L4.064,23.391 L7.53,1.996 C7.315,1.752 7.081,1.53 6.821,1.334 L6.821,1.334 Z"></path>
                    </g>
                    <g transform="translate(1.000000, 0.000000)" fill="#8DB3A9">
                        <path d="M4.593,0.363 L0.863,23.39 L2.776,23.39 L6.439,0.781 C5.872,0.525 5.25,0.381 4.593,0.363 L4.593,0.363 Z"></path>
                        <path d="M7.354,1.334 L3.781,23.391 L4.597,23.391 L8.063,1.996 C7.85,1.752 7.614,1.53 7.354,1.334 L7.354,1.334 Z"></path>
                    </g>
                    <g transform="translate(32.000000, 0.000000)" fill="#8DB3A9">
                        <path d="M4.527,0.363 L0.797,23.39 L2.709,23.39 L6.373,0.781 C5.807,0.525 5.185,0.381 4.527,0.363 L4.527,0.363 Z"></path>
                        <path d="M7.289,1.334 L3.716,23.391 L4.532,23.391 L7.998,1.996 C7.783,1.752 7.549,1.53 7.289,1.334 L7.289,1.334 Z"></path>
                    </g>
                    <g transform="translate(48.000000, 0.000000)" fill="#8DB3A9">
                        <path d="M3.994,0.363 L0.264,23.39 L2.177,23.39 L5.84,0.781 C5.273,0.525 4.651,0.381 3.994,0.363 L3.994,0.363 Z"></path>
                        <path d="M6.756,1.334 L3.183,23.391 L3.999,23.391 L7.465,1.996 C7.25,1.752 7.016,1.53 6.756,1.334 L6.756,1.334 Z"></path>
                    </g>
                </g>
                <g transform="translate(11.000000, 119.000000)" id="Shape">
                    <path d="M10.255,23.164 L0.671,23.164 L0.671,4.918 C0.671,2.266 2.816,0.123 5.458,0.123 L5.458,0.123 C8.11,0.123 10.255,2.266 10.255,4.918 L10.255,23.164 L10.255,23.164 Z" fill="#68847D"></path>
                    <path d="M25.722,23.164 L16.138,23.164 L16.138,4.918 C16.138,2.266 18.283,0.123 20.927,0.123 L20.927,0.123 C23.579,0.123 25.722,2.266 25.722,4.918 L25.722,23.164 L25.722,23.164 Z" fill="#68847D"></path>
                    <path d="M41.188,23.164 L31.606,23.164 L31.606,4.918 C31.606,2.266 33.749,0.123 36.391,0.123 L36.391,0.123 C39.045,0.123 41.188,2.266 41.188,4.918 L41.188,23.164 L41.188,23.164 Z" fill="#68847D"></path>
                    <path d="M56.657,23.164 L47.071,23.164 L47.071,4.918 C47.071,2.266 49.216,0.123 51.86,0.123 L51.86,0.123 C54.512,0.123 56.657,2.266 56.657,4.918 L56.657,23.164 L56.657,23.164 Z" fill="#68847D"></path>
                    <g transform="translate(17.000000, 0.000000)" fill="#8DB3A9">
                        <path d="M4.06,0.13 L0.329,23.158 L2.243,23.158 L5.905,0.547 C5.339,0.293 4.717,0.146 4.06,0.13 L4.06,0.13 Z"></path>
                        <path d="M6.821,1.101 L3.248,23.159 L4.064,23.159 L7.53,1.763 C7.315,1.518 7.081,1.297 6.821,1.101 L6.821,1.101 Z"></path>
                    </g>
                    <g transform="translate(1.000000, 0.000000)" fill="#8DB3A9">
                        <path d="M4.593,0.13 L0.863,23.158 L2.776,23.158 L6.439,0.547 C5.872,0.293 5.25,0.146 4.593,0.13 L4.593,0.13 Z"></path>
                        <path d="M7.354,1.101 L3.781,23.159 L4.597,23.159 L8.063,1.763 C7.85,1.518 7.614,1.297 7.354,1.101 L7.354,1.101 Z"></path>
                    </g>
                    <g transform="translate(32.000000, 0.000000)" fill="#8DB3A9">
                        <path d="M4.527,0.13 L0.797,23.158 L2.709,23.158 L6.373,0.547 C5.807,0.293 5.185,0.146 4.527,0.13 L4.527,0.13 Z"></path>
                        <path d="M7.289,1.101 L3.716,23.159 L4.532,23.159 L7.998,1.763 C7.783,1.518 7.549,1.297 7.289,1.101 L7.289,1.101 Z"></path>
                    </g>
                    <g transform="translate(48.000000, 0.000000)" fill="#8DB3A9">
                        <path d="M3.994,0.13 L0.264,23.158 L2.177,23.158 L5.84,0.547 C5.273,0.293 4.651,0.146 3.994,0.13 L3.994,0.13 Z"></path>
                        <path d="M6.756,1.101 L3.183,23.159 L3.999,23.159 L7.465,1.763 C7.25,1.518 7.016,1.297 6.756,1.101 L6.756,1.101 Z"></path>
                    </g>
                </g>
                <g transform="translate(29.000000, 152.000000)">
                    <rect id="Rectangle-path" fill="#736357" x="3.17" y="0.686" width="14.995" height="29.754"></rect>
                    <rect id="Rectangle-path" fill="#68847D" x="5.26" y="4.992" width="10.815" height="21.141"></rect>
                    <g transform="translate(6.000000, 4.000000)" id="Shape" fill="#8DB3A9">
                        <path d="M7.835,0.863 L5.779,0.863 L0.606,22.133 L2.662,22.133 L7.835,0.863 Z"></path>
                        <path d="M10.147,0.863 L8.858,0.863 L3.686,22.133 L4.975,22.133 L10.147,0.863 Z"></path>
                    </g>
                    <rect id="Rectangle-path" fill="#998675" x="0.934" y="31.06" width="19.468" height="2.949"></rect>
                    <rect id="Rectangle-path" fill="#998675" x="0.297" y="30.439" width="20.74" height="0.62"></rect>
                </g>
                <path d="M54.831,34.92 L24.49,34.92 C24.49,26.541 31.282,19.749 39.661,19.749 C48.039,19.749 54.831,26.541 54.831,34.92 L54.831,34.92 Z" id="Shape" fill="#F88A6B"></path>
                <path d="M52.206,34.92 L27.115,34.92 C27.115,27.991 32.731,22.374 39.661,22.374 C46.59,22.374 52.206,27.991 52.206,34.92 L52.206,34.92 Z" id="Shape" fill="#FF9C80"></path>
                <g transform="translate(14.000000, 152.000000)" id="Shape" fill="#8DB3A9">
                    <path d="M7.861,0.564 L5.807,0.564 L0.633,18.932 L2.688,18.932 L7.861,0.564 Z"></path>
                    <path d="M10.174,0.564 L8.886,0.564 L3.712,18.932 L5.001,18.932 L10.174,0.564 Z"></path>
                </g>
                <g transform="translate(55.000000, 152.000000)" id="Shape" fill="#8DB3A9">
                    <path d="M7.381,0.564 L5.325,0.564 L0.152,18.932 L2.207,18.932 L7.381,0.564 Z"></path>
                    <path d="M9.693,0.564 L8.404,0.564 L3.231,18.932 L4.521,18.932 L9.693,0.564 Z"></path>
                </g>
                <g transform="translate(9.000000, 149.000000)">
                    <g transform="translate(0.000000, 10.000000)" id="Oval">
                        <circle fill="#F2F2F2" cx="18.058" cy="2.271" r="1.913"></circle>
                        <circle fill="#EBB375" cx="14.231" cy="2.271" r="1.914"></circle>
                        <circle fill="#F2F2F2" cx="10.404" cy="2.271" r="1.914"></circle>
                        <circle fill="#EBB375" cx="6.577" cy="2.271" r="1.914"></circle>
                        <circle fill="#F2F2F2" cx="2.75" cy="2.271" r="1.914"></circle>
                    </g>
                    <rect id="Rectangle-path" fill="#FDC17F" x="0.836" y="0.039" width="19.135" height="12.232"></rect>
                    <rect id="Rectangle-path" fill="#FFFFFF" x="16.145" y="0.039" width="3.826" height="12.232"></rect>
                    <rect id="Rectangle-path" fill="#FFFFFF" x="8.49" y="0.039" width="3.826" height="12.232"></rect>
                    <rect id="Rectangle-path" fill="#FFFFFF" x="0.837" y="0.039" width="3.826" height="12.232"></rect>
                </g>
                <g transform="translate(50.000000, 149.000000)">
                    <g transform="translate(0.000000, 10.000000)" id="Oval">
                        <circle fill="#F2F2F2" cx="17.577" cy="2.271" r="1.914"></circle>
                        <circle fill="#EBB375" cx="13.75" cy="2.271" r="1.914"></circle>
                        <circle fill="#F2F2F2" cx="9.922" cy="2.271" r="1.914"></circle>
                        <circle fill="#EBB375" cx="6.095" cy="2.271" r="1.914"></circle>
                        <circle fill="#F2F2F2" cx="2.269" cy="2.271" r="1.913"></circle>
                    </g>
                    <rect id="Rectangle-path" fill="#FDC17F" x="0.355" y="0.039" width="19.135" height="12.232"></rect>
                    <rect id="Rectangle-path" fill="#FFFFFF" x="15.663" y="0.039" width="3.827" height="12.232"></rect>
                    <rect id="Rectangle-path" fill="#FFFFFF" x="8.009" y="0.039" width="3.827" height="12.232"></rect>
                    <rect id="Rectangle-path" fill="#FFFFFF" x="0.355" y="0.039" width="3.826" height="12.232"></rect>
                </g>
            </g>
            <path d="M106.565,229.471 C103.733,229.471 101.168,230.594 99.273,232.411 C96.751,228.432 92.32,225.781 87.259,225.781 C79.403,225.781 73.032,232.151 73.031,240.009 L117.103,240.009 C117.102,234.188 112.384,229.471 106.565,229.471 L106.565,229.471 Z" id="Shape" fill="#85BC02" sketch:type="MSShapeGroup"></path>
            <path d="M472.852,229.471 C470.02,229.471 467.455,230.594 465.56,232.411 C463.038,228.432 458.607,225.781 453.546,225.781 C445.69,225.781 439.319,232.151 439.318,240.009 L483.39,240.009 C483.388,234.188 478.67,229.471 472.852,229.471 L472.852,229.471 Z" id="Shape" fill="#85BC02" sketch:type="MSShapeGroup"></path>
            <g id="Group" transform="translate(605.000000, 185.000000)" sketch:type="MSShapeGroup">
                <ellipse id="Oval" fill="#C6F81C" cx="12.598" cy="21.273" rx="12.573" ry="20.815"></ellipse>
                <path d="M0.025,21.273 C0.025,32.769 5.654,42.088 12.597,42.088 L12.597,0.458 C5.654,0.459 0.025,9.777 0.025,21.273 L0.025,21.273 Z" id="Shape" fill="#85BC02"></path>
                <path d="M19.084,28.518 L17.689,27.445 L12.635,34.019 L5.686,24.495 L4.266,25.531 L11.278,35.145 L10.399,55.009 L14.797,55.009 L13.922,35.229 L19.084,28.518 Z" id="Shape" fill="#754C24"></path>
            </g>
            <g id="Group" transform="translate(308.000000, 185.000000)" sketch:type="MSShapeGroup">
                <ellipse id="Oval" fill="#C6F81C" cx="12.598" cy="21.273" rx="12.573" ry="20.815"></ellipse>
                <path d="M0.025,21.273 C0.025,32.769 5.654,42.088 12.598,42.088 L12.598,0.458 C5.654,0.459 0.025,9.777 0.025,21.273 L0.025,21.273 Z" id="Shape" fill="#85BC02"></path>
                <path d="M19.084,28.518 L17.689,27.445 L12.634,34.019 L5.686,24.495 L4.266,25.531 L11.278,35.145 L10.4,55.009 L14.797,55.009 L13.922,35.229 L19.084,28.518 Z" id="Shape" fill="#754C24"></path>
            </g>
            <g id="Group" transform="translate(8.000000, 193.000000)" sketch:type="MSShapeGroup">
                <ellipse id="Oval" fill="#C6F81C" cx="11.598" cy="18.118" rx="10.768" ry="17.826"></ellipse>
                <path d="M0.831,18.118 C0.831,27.963 5.652,35.944 11.599,35.944 L11.599,0.292 C5.651,0.292 0.831,8.273 0.831,18.118 L0.831,18.118 Z" id="Shape" fill="#85BC02"></path>
                <path d="M17.153,24.322 L15.958,23.403 L11.629,29.033 L5.679,20.877 L4.462,21.765 L10.468,29.997 L9.715,47.009 L13.481,47.009 L12.732,30.068 L17.153,24.322 Z" id="Shape" fill="#754C24"></path>
            </g>
            <g id="Group" transform="translate(344.000000, 191.000000)" sketch:type="MSShapeGroup">
                <path d="M31.43,15.65 C31.43,24.119 24.559,30.99 16.086,30.99 C7.612,30.99 0.742,24.119 0.742,15.65 C0.742,7.177 7.612,0.306 16.086,0.306 C24.559,0.307 31.43,7.178 31.43,15.65 L31.43,15.65 Z" id="Shape" fill="#C6F81C"></path>
                <path d="M16.084,30.99 L16.084,0.306 C7.612,0.306 0.742,7.178 0.742,15.646 C0.742,24.121 7.612,30.99 16.084,30.99 L16.084,30.99 Z" id="Shape" fill="#85BC02"></path>
                <path d="M23.461,18.886 L21.875,17.666 L16.127,25.141 L8.226,14.312 L6.61,15.49 L14.585,26.421 L13.586,49.009 L18.586,49.009 L17.592,26.517 L23.461,18.886 Z" id="Shape" fill="#754C24"></path>
            </g>
            <g id="Group" transform="translate(23.000000, 190.000000)" sketch:type="MSShapeGroup">
                <path d="M31.261,16.079 C31.261,24.693 24.273,31.682 15.655,31.682 C7.037,31.682 0.049,24.694 0.049,16.079 C0.049,7.462 7.037,0.475 15.655,0.475 C24.273,0.475 31.261,7.462 31.261,16.079 L31.261,16.079 Z" id="Shape" fill="#C6F81C"></path>
                <path d="M15.653,31.682 L15.653,0.475 C7.037,0.475 0.049,7.463 0.049,16.077 C0.049,24.695 7.037,31.682 15.653,31.682 L15.653,31.682 Z" id="Shape" fill="#85BC02"></path>
                <path d="M23.157,19.37 L21.543,18.129 L15.697,25.732 L7.661,14.717 L6.018,15.916 L14.128,27.035 L13.113,50.009 L18.198,50.009 L17.187,27.132 L23.157,19.37 Z" id="Shape" fill="#754C24"></path>
            </g>
            <g id="Group" transform="translate(327.000000, 203.000000)" sketch:type="MSShapeGroup">
                <circle id="Oval" fill="#C6F81C" cx="12.449" cy="11.686" r="11.647"></circle>
                <path d="M12.448,23.33 L12.448,0.039 C6.017,0.039 0.802,5.255 0.802,11.684 C0.802,18.116 6.018,23.33 12.448,23.33 L12.448,23.33 Z" id="Shape" fill="#85BC02"></path>
                <path d="M18.048,14.142 L16.845,13.216 L12.48,18.891 L6.482,10.67 L5.257,11.564 L11.311,19.862 L10.552,37.009 L14.348,37.009 L13.593,19.935 L18.048,14.142 Z" id="Shape" fill="#754C24"></path>
            </g>
            <g id="Group" transform="translate(620.000000, 191.000000)" sketch:type="MSShapeGroup">
                <path d="M31.169,15.65 C31.169,24.119 24.299,30.99 15.826,30.99 C7.352,30.99 0.482,24.119 0.482,15.65 C0.482,7.177 7.352,0.306 15.826,0.306 C24.299,0.307 31.169,7.178 31.169,15.65 L31.169,15.65 Z" id="Shape" fill="#C6F81C"></path>
                <path d="M15.824,30.99 L15.824,0.306 C7.352,0.306 0.482,7.178 0.482,15.646 C0.482,24.121 7.353,30.99 15.824,30.99 L15.824,30.99 Z" id="Shape" fill="#85BC02"></path>
                <path d="M23.201,18.886 L21.615,17.666 L15.867,25.141 L7.966,14.312 L6.351,15.49 L14.325,26.421 L13.326,49.009 L18.326,49.009 L17.332,26.517 L23.201,18.886 Z" id="Shape" fill="#754C24"></path>
            </g>
            <path d="M654.045,250.104 L5.955,250.104 C3.167,250.104 0.907,247.844 0.907,245.056 L0.907,245.056 C0.907,242.269 3.167,240.008 5.955,240.008 L654.045,240.008 C656.833,240.008 659.093,242.269 659.093,245.056 L659.093,245.056 C659.093,247.845 656.833,250.104 654.045,250.104 L654.045,250.104 Z" id="Shape" fill="#5A736E" sketch:type="MSShapeGroup"></path>
            <g id="Group" transform="translate(528.000000, 0.000000)" sketch:type="MSShapeGroup">
                <path d="M12.38,28.903 C12.38,38.269 19.978,45.867 29.346,45.867 C38.717,45.867 46.315,38.268 46.315,28.903 C46.315,19.532 38.717,11.935 29.346,11.935 C19.978,11.935 12.38,19.532 12.38,28.903 L12.38,28.903 Z" id="Shape" fill="#FFD84F"></path>
                <path d="M29.346,11.935 L29.346,45.868 C19.978,45.868 12.38,38.269 12.38,28.904 C12.38,19.532 19.978,11.935 29.346,11.935 L29.346,11.935 Z" id="Shape" fill="#FDCB1A"></path>
                <circle id="Oval" fill="#FFD84F" cx="29.347" cy="3.221" r="2.808"></circle>
                <circle id="Oval" fill="#FFD84F" cx="42.187" cy="6.662" r="2.808"></circle>
                <circle id="Oval" fill="#FFD84F" cx="51.586" cy="16.061" r="2.807"></circle>
                <circle id="Oval" fill="#FFD84F" cx="55.026" cy="28.901" r="2.807"></circle>
                <circle id="Oval" fill="#FFD84F" cx="51.586" cy="41.74" r="2.807"></circle>
                <circle id="Oval" fill="#FFD84F" cx="42.186" cy="51.14" r="2.807"></circle>
                <circle id="Oval" fill="#FFD84F" cx="29.347" cy="54.58" r="2.808"></circle>
                <circle id="Oval" fill="#FFD84F" cx="16.507" cy="51.139" r="2.808"></circle>
                <circle id="Oval" fill="#FFD84F" cx="7.108" cy="41.74" r="2.808"></circle>
                <circle id="Oval" fill="#FFD84F" cx="3.668" cy="28.901" r="2.807"></circle>
                <circle id="Oval" fill="#FFD84F" cx="7.108" cy="16.061" r="2.808"></circle>
                <circle id="Oval" fill="#FFD84F" cx="16.507" cy="6.662" r="2.808"></circle>
            </g>
        </g>
    </g>
</svg>