<?xml version="1.0" encoding="UTF-8" standalone="no"?>
<svg width="660px" height="266px" viewBox="0 0 660 266" version="1.1" xmlns="http://www.w3.org/2000/svg" xmlns:xlink="http://www.w3.org/1999/xlink" xmlns:sketch="http://www.bohemiancoding.com/sketch/ns">
    <!-- Generator: Sketch 3.3.3 (12081) - http://www.bohemiancoding.com/sketch -->
    <title>citynight</title>
    <desc>Created with Sketch.</desc>
    <defs></defs>
    <g id="Page-1" stroke="none" stroke-width="1" fill="none" fill-rule="evenodd" sketch:type="MSPage">
        <g id="citynight" sketch:type="MSLayerGroup">
            <path d="M302.549,116.614 L323.05,116.614 L323.05,109.462 L332.159,109.462 L332.159,116.614 L394.739,116.614 L394.739,124.57 L393.067,124.57 L393.067,127.489 L390.646,127.489 L390.646,166.092 L393.067,166.092 L393.067,170.289 L390.646,170.289 L390.646,206.736 L393.067,206.736 L393.067,210.934 L390.646,210.934 L390.646,243.183 L393.067,243.183 L393.067,255.229 L390.646,255.229 L336.341,255.229 L314.094,255.229 L306.635,255.229 L304.22,255.229 L304.22,243.183 L306.635,243.183 L306.635,210.934 L304.22,210.934 L304.22,206.736 L306.635,206.736 L306.635,170.289 L304.22,170.289 L304.22,166.092 L306.635,166.092 L306.635,127.489 L304.22,127.489 L304.22,124.57 L302.549,124.57 L302.549,116.614 Z" id="Shape" opacity="0.3" fill="#333333" sketch:type="MSShapeGroup"></path>
            <path d="M139.068,149.823 L141.867,149.823 L103.46,115.011 L65.043,149.823 L67.843,149.823 L67.843,183.729 L66.398,183.729 L66.398,186.155 L67.843,186.155 L67.843,217.556 L67.843,255.229 L139.068,255.229 L139.068,217.556 L139.068,186.155 L140.513,186.155 L140.513,183.729 L139.068,183.729 L139.068,149.823 Z" id="Shape" opacity="0.3" fill="#333333" sketch:type="MSShapeGroup"></path>
            <path d="M582.185,152.738 L585.231,152.738 L543.436,118.889 L501.63,152.738 L504.677,152.738 L504.677,185.706 L503.104,185.706 L503.104,188.066 L504.677,188.066 L504.677,218.598 L504.677,255.229 L582.185,255.229 L582.185,218.598 L582.185,188.066 L583.757,188.066 L583.757,185.706 L582.185,185.706 L582.185,152.738 Z" id="Shape" opacity="0.3" fill="#333333" sketch:type="MSShapeGroup"></path>
            <g id="Group" transform="translate(482.000000, 138.000000)" sketch:type="MSShapeGroup">
                <rect id="Rectangle-path" fill="#FFFFFF" transform="translate(37.710625, 79.572014) rotate(180.063025) translate(-37.710625, -79.572014) " x="1.45110286" y="41.9539913" width="72.5190439" height="75.2360455"></rect>
                <rect id="Rectangle-path" fill="#FF9C80" transform="translate(37.690505, 97.736036) rotate(180.063025) translate(-37.690505, -97.736036) " x="1.43098326" y="78.2820243" width="72.5190439" height="38.9080235"></rect>
                <rect id="Rectangle-path" fill="#985F51" transform="translate(37.780863, 23.236342) rotate(180.063025) translate(-37.780863, -23.236342) " x="5.69984404" y="8.69983321" width="64.1620388" height="29.0730176"></rect>
                <path d="M1.51,37.736 L1.546,5.319 L5.719,5.324 L5.683,37.741 L69.845,37.812 L69.881,5.395 L74.056,5.399 L74.02,37.816 L74.012,37.816 L74.007,41.99 L1.488,41.91 L1.492,37.736 L1.51,37.736 Z" id="Shape" fill="#855347"></path>
                <rect id="Rectangle-path" fill="#855347" transform="translate(50.460237, 10.860498) rotate(0.063025) translate(-50.460237, -10.860498) " x="46.5277351" y="0.157491275" width="7.86500476" height="21.406013"></rect>
                <g transform="translate(10.000000, 84.000000)" id="Shape">
                    <path d="M9.571,22.786 L0.117,22.786 L0.117,4.787 C0.117,2.172 2.232,0.058 4.839,0.058 L4.839,0.058 C7.455,0.058 9.571,2.171 9.571,4.787 L9.571,22.786 L9.571,22.786 Z" fill="#68847D"></path>
                    <path d="M24.828,22.786 L15.374,22.786 L15.374,4.787 C15.374,2.172 17.489,0.058 20.098,0.058 L20.098,0.058 C22.715,0.058 24.828,2.171 24.828,4.787 L24.828,22.786 L24.828,22.786 Z" fill="#68847D"></path>
                    <path d="M40.085,22.786 L30.633,22.786 L30.633,4.787 C30.633,2.172 32.746,0.058 35.353,0.058 L35.353,0.058 C37.971,0.058 40.085,2.171 40.085,4.787 L40.085,22.786 L40.085,22.786 Z" fill="#68847D"></path>
                    <path d="M55.344,22.786 L45.888,22.786 L45.888,4.787 C45.888,2.172 48.003,0.058 50.612,0.058 L50.612,0.058 C53.228,0.058 55.344,2.171 55.344,4.787 L55.344,22.786 L55.344,22.786 Z" fill="#68847D"></path>
                    <g transform="translate(16.000000, 0.000000)" fill="#8DB3A9">
                        <path d="M4.229,0.064 L0.548,22.779 L2.435,22.779 L6.049,0.476 C5.491,0.225 4.878,0.081 4.229,0.064 L4.229,0.064 Z"></path>
                        <path d="M6.953,1.022 L3.429,22.779 L4.234,22.779 L7.653,1.675 C7.441,1.434 7.209,1.216 6.953,1.022 L6.953,1.022 Z"></path>
                    </g>
                    <g transform="translate(1.000000, 0.000000)" fill="#8DB3A9">
                        <path d="M3.973,0.064 L0.292,22.779 L2.18,22.779 L5.793,0.476 C5.234,0.225 4.621,0.081 3.973,0.064 L3.973,0.064 Z"></path>
                        <path d="M6.696,1.022 L3.172,22.779 L3.977,22.779 L7.397,1.675 C7.185,1.434 6.953,1.216 6.696,1.022 L6.696,1.022 Z"></path>
                    </g>
                    <g transform="translate(31.000000, 0.000000)" fill="#8DB3A9">
                        <path d="M4.487,0.064 L0.806,22.779 L2.693,22.779 L6.306,0.476 C5.749,0.225 5.136,0.081 4.487,0.064 L4.487,0.064 Z"></path>
                        <path d="M7.211,1.022 L3.687,22.779 L4.492,22.779 L7.911,1.675 C7.699,1.434 7.467,1.216 7.211,1.022 L7.211,1.022 Z"></path>
                    </g>
                    <g transform="translate(47.000000, 0.000000)" fill="#8DB3A9">
                        <path d="M3.744,0.064 L0.063,22.779 L1.95,22.779 L5.563,0.476 C5.006,0.225 4.393,0.081 3.744,0.064 L3.744,0.064 Z"></path>
                        <path d="M6.468,1.022 L2.944,22.779 L3.749,22.779 L7.168,1.675 C6.956,1.434 6.724,1.216 6.468,1.022 L6.468,1.022 Z"></path>
                    </g>
                </g>
                <rect id="Rectangle-path" fill="#AD6D5C" transform="translate(37.677646, 113.405240) rotate(0.063025) translate(-37.677646, -113.405240) " x="0.255123609" y="109.630737" width="74.8450453" height="7.54900457"></rect>
                <g transform="translate(10.000000, 49.000000)" id="Shape">
                    <path d="M9.571,23.726 L0.117,23.726 L0.117,5.728 C0.117,3.113 2.232,0.999 4.839,0.999 L4.839,0.999 C7.455,0.999 9.571,3.112 9.571,5.728 L9.571,23.726 L9.571,23.726 Z" fill="#68847D"></path>
                    <path d="M24.828,23.726 L15.374,23.726 L15.374,5.728 C15.374,3.113 17.489,0.999 20.098,0.999 L20.098,0.999 C22.715,0.999 24.828,3.112 24.828,5.728 L24.828,23.726 L24.828,23.726 Z" fill="#68847D"></path>
                    <path d="M40.085,23.726 L30.633,23.726 L30.633,5.728 C30.633,3.113 32.746,0.999 35.353,0.999 L35.353,0.999 C37.971,0.999 40.085,3.112 40.085,5.728 L40.085,23.726 L40.085,23.726 Z" fill="#68847D"></path>
                    <path d="M55.344,23.726 L45.888,23.726 L45.888,5.728 C45.888,3.113 48.003,0.999 50.612,0.999 L50.612,0.999 C53.228,0.999 55.344,3.112 55.344,5.728 L55.344,23.726 L55.344,23.726 Z" fill="#68847D"></path>
                    <g transform="translate(16.000000, 1.000000)" fill="#8DB3A9">
                        <path d="M4.229,0.005 L0.548,22.72 L2.435,22.72 L6.049,0.416 C5.491,0.165 4.878,0.021 4.229,0.005 L4.229,0.005 Z"></path>
                        <path d="M6.953,0.962 L3.429,22.72 L4.234,22.72 L7.653,1.616 C7.441,1.374 7.209,1.156 6.953,0.962 L6.953,0.962 Z"></path>
                    </g>
                    <g transform="translate(1.000000, 1.000000)" fill="#8DB3A9">
                        <path d="M3.973,0.005 L0.292,22.72 L2.18,22.72 L5.793,0.416 C5.234,0.165 4.621,0.021 3.973,0.005 L3.973,0.005 Z"></path>
                        <path d="M6.696,0.962 L3.172,22.72 L3.977,22.72 L7.397,1.616 C7.185,1.374 6.953,1.156 6.696,0.962 L6.696,0.962 Z"></path>
                    </g>
                    <g transform="translate(31.000000, 1.000000)" fill="#8DB3A9">
                        <path d="M4.487,0.005 L0.806,22.72 L2.693,22.72 L6.306,0.416 C5.749,0.165 5.136,0.021 4.487,0.005 L4.487,0.005 Z"></path>
                        <path d="M7.211,0.962 L3.687,22.72 L4.492,22.72 L7.911,1.616 C7.699,1.374 7.467,1.156 7.211,0.962 L7.211,0.962 Z"></path>
                    </g>
                    <g transform="translate(47.000000, 1.000000)" fill="#8DB3A9">
                        <path d="M3.744,0.005 L0.063,22.72 L1.95,22.72 L5.563,0.416 C5.006,0.165 4.393,0.021 3.744,0.005 L3.744,0.005 Z"></path>
                        <path d="M6.468,0.962 L2.944,22.72 L3.749,22.72 L7.168,1.616 C6.956,1.374 6.724,1.156 6.468,0.962 L6.468,0.962 Z"></path>
                    </g>
                </g>
                <path d="M75.091,117.229 L0.246,117.146 L0.255,109.597 L1.413,109.599 L1.413,5.438 L75.091,117.229 Z" id="Shape" opacity="0.1" fill="#333333"></path>
            </g>
            <path d="M257.386,174.743 L255.76,174.743 L255.76,135.707 L255.768,135.707 L255.768,131.093 L255.75,131.093 L255.75,95.252 L251.135,95.252 L251.135,98.949 L238.275,98.949 L238.275,91.545 L231.696,91.545 L231.696,98.949 L228.752,98.949 L228.752,88.137 L225.121,88.137 L225.121,98.949 L180.2,98.949 L180.2,95.252 L175.584,95.252 L175.584,131.093 L175.594,131.093 L175.594,135.707 L175.584,135.707 L175.584,174.743 L173.958,174.743 L173.958,177.476 L175.584,177.476 L175.584,212.822 L175.584,255.229 L255.76,255.229 L255.76,212.822 L255.76,177.476 L257.386,177.476 L257.386,174.743 Z" id="Shape" opacity="0.3" fill="#333333" sketch:type="MSShapeGroup"></path>
            <g id="Group" transform="translate(270.000000, 147.000000)" sketch:type="MSShapeGroup">
                <path d="M49.437,108.229 L84.759,108.229 L84.759,63.484 L67.099,37.633 L49.437,63.484 L49.437,108.229 Z" id="Shape" fill="#FFFFFF"></path>
                <path d="M0.636,108.229 L35.958,108.229 L35.958,63.484 L18.298,37.633 L0.636,63.484 L0.636,108.229 Z" id="Shape" fill="#FFFFFF"></path>
                <rect id="Rectangle-path" fill="#E6E6E6" x="0.636" y="63.484" width="48.801" height="44.744"></rect>
                <path d="M16.783,39.851 L65.584,39.851 L49.437,63.484 L0.636,63.484 L16.783,39.851 Z" id="Shape" fill="#985F51"></path>
                <rect id="Rectangle-path" fill="#F2F2F2" x="49.437" y="102.905" width="36.037" height="5.323"></rect>
                <rect id="Rectangle-path" fill="#CCCCCC" x="0.021" y="102.905" width="49.416" height="5.323"></rect>
                <g transform="translate(7.000000, 79.000000)" id="Shape">
                    <path d="M27.981,20.886 L35.111,20.886 L35.111,3.938 C35.111,1.972 33.517,0.378 31.551,0.378 L31.541,0.378 C29.575,0.378 27.981,1.972 27.981,3.938 L27.981,20.886 L27.981,20.886 Z" fill="#68847D"></path>
                    <path d="M14.479,20.886 L21.594,20.886 L21.594,3.936 C21.594,1.971 20.001,0.378 18.036,0.378 L18.036,0.378 C16.072,0.378 14.479,1.971 14.479,3.936 L14.479,20.886 L14.479,20.886 Z" fill="#68847D"></path>
                    <path d="M0.959,20.886 L8.092,20.886 L8.092,3.945 C8.092,1.975 6.495,0.379 4.526,0.379 L4.526,0.379 C2.556,0.379 0.96,1.976 0.96,3.945 L0.96,20.886 L0.959,20.886 Z" fill="#68847D"></path>
                    <g transform="translate(1.000000, 0.000000)" fill="#8DB3A9">
                        <path d="M3.965,0.4 L0.65,20.863 L2.394,20.863 L5.606,1.039 C5.133,0.696 4.574,0.477 3.965,0.4 L3.965,0.4 Z"></path>
                        <path d="M6.396,1.827 L3.312,20.863 L4.056,20.863 L6.951,2.994 C6.836,2.568 6.65,2.174 6.396,1.827 L6.396,1.827 Z"></path>
                    </g>
                    <g transform="translate(15.000000, 0.000000)" fill="#8DB3A9">
                        <path d="M3.477,0.4 L0.162,20.863 L1.907,20.863 L5.118,1.039 C4.644,0.696 4.084,0.477 3.477,0.4 L3.477,0.4 Z"></path>
                        <path d="M5.907,1.827 L2.823,20.863 L3.568,20.863 L6.463,2.994 C6.347,2.568 6.161,2.174 5.907,1.827 L5.907,1.827 Z"></path>
                    </g>
                    <g transform="translate(28.000000, 0.000000)" fill="#8DB3A9">
                        <path d="M3.986,0.4 L0.671,20.863 L2.416,20.863 L5.627,1.039 C5.154,0.696 4.595,0.477 3.986,0.4 L3.986,0.4 Z"></path>
                        <path d="M6.417,1.827 L3.333,20.863 L4.077,20.863 L6.972,2.994 C6.857,2.568 6.67,2.174 6.417,1.827 L6.417,1.827 Z"></path>
                    </g>
                </g>
                <path d="M46.509,63.484 L49.437,63.484 L67.099,37.633 L64.171,37.633 L46.509,63.484 Z" id="Shape" fill="#855347"></path>
                <rect id="Rectangle-path" fill="#855347" x="3.163" y="60.623" width="46.035" height="2.861"></rect>
                <path d="M0.636,63.484 L3.562,63.484 L21.224,37.633 L18.298,37.633 L0.636,63.484 Z" id="Shape" fill="#855347"></path>
                <circle id="Oval" fill="#68847D" cx="67.099" cy="59.73" r="6.305"></circle>
                <rect id="Rectangle-path" fill="#E6E6E6" x="17.421" y="21.847" width="15.525" height="33.334"></rect>
                <path d="M32.946,55.181 L42.471,42.944 L42.471,21.847 L32.946,21.847 L32.946,55.181 Z" id="Shape" fill="#FFFFFF"></path>
                <path d="M29.946,0.508 L17.421,21.847 L42.471,21.847 L29.946,0.508 Z" id="Shape" fill="#985F51"></path>
                <path d="M29.946,0.508 L32.946,21.847 L42.471,21.847 L29.946,0.508 Z" id="Shape" fill="#AD6D5C"></path>
                <circle id="Oval" fill="#68847D" cx="25.291" cy="31.069" r="3.888"></circle>
                <rect id="Rectangle-path" fill="#F2F2F2" x="49.437" y="72.931" width="36.037" height="1.865"></rect>
                <rect id="Rectangle-path" fill="#CCCCCC" x="0.021" y="72.931" width="49.416" height="1.865"></rect>
                <path d="M69.539,108.229 L0.021,108.229 L0.021,102.905 L0.636,102.905 L0.636,74.796 L0.021,74.796 L0.021,72.932 L0.636,72.931 L0.636,63.484 L17.409,38.949 L17.421,21.847 L69.539,108.229 Z" id="Shape" opacity="0.1" fill="#333333"></path>
            </g>
            <g id="Group" transform="translate(550.000000, 184.000000)" sketch:type="MSShapeGroup">
                <path d="M49.808,71.229 L85.13,71.229 L85.13,26.484 L67.47,0.633 L49.808,26.484 L49.808,71.229 Z" id="Shape" fill="#FFEABF"></path>
                <path d="M1.007,71.229 L36.329,71.229 L36.329,26.484 L18.669,0.633 L1.007,26.484 L1.007,71.229 Z" id="Shape" fill="#FFFFFF"></path>
                <path d="M21.595,0.633 L25.551,4.574 L18.668,4.917 L21.595,0.633 Z" id="Shape" fill="#736357"></path>
                <rect id="Rectangle-path" fill="#EBD7B0" x="1.007" y="26.484" width="48.801" height="44.744"></rect>
                <path d="M17.154,2.851 L65.955,2.851 L49.808,26.484 L1.007,26.484 L17.154,2.851 Z" id="Shape" fill="#998675"></path>
                <rect id="Rectangle-path" fill="#998675" x="49.808" y="65.905" width="36.037" height="5.323"></rect>
                <rect id="Rectangle-path" fill="#736357" x="0.393" y="65.905" width="49.415" height="5.323"></rect>
                <path d="M46.881,26.484 L49.808,26.484 L67.47,0.633 L64.542,0.633 L46.881,26.484 Z" id="Shape" fill="#736357"></path>
                <rect id="Rectangle-path" fill="#736357" x="3.533" y="23.623" width="46.035" height="2.861"></rect>
                <path d="M1.007,26.484 L3.933,26.484 L21.595,0.633 L18.669,0.633 L1.007,26.484 Z" id="Shape" fill="#736357"></path>
                <rect id="Rectangle-path" fill="#998675" x="49.808" y="32.931" width="36.037" height="1.865"></rect>
                <rect id="Rectangle-path" fill="#736357" x="0.393" y="32.931" width="49.415" height="1.865"></rect>
                <g transform="translate(7.000000, 40.000000)" id="Shape">
                    <path d="M8.714,21.793 L0.013,21.793 L0.013,5.225 C0.013,2.817 1.96,0.87 4.361,0.87 L4.361,0.87 C6.769,0.87 8.715,2.817 8.715,5.225 L8.715,21.793 L8.714,21.793 Z" fill="#68847D"></path>
                    <path d="M22.758,21.793 L14.056,21.793 L14.056,5.225 C14.056,2.817 16.003,0.87 18.405,0.87 L18.405,0.87 C20.813,0.87 22.759,2.817 22.759,5.225 L22.759,21.793 L22.758,21.793 Z" fill="#68847D"></path>
                    <path d="M36.802,21.793 L28.102,21.793 L28.102,5.225 C28.102,2.817 30.049,0.87 32.449,0.87 L32.449,0.87 C34.859,0.87 36.803,2.817 36.803,5.225 L36.803,21.793 L36.802,21.793 Z" fill="#68847D"></path>
                    <g transform="translate(29.000000, 0.000000)" fill="#8DB3A9">
                        <path d="M3.69,0.876 L0.302,21.785 L1.895,21.785 L5.231,1.199 C4.756,1.001 4.234,0.895 3.69,0.876 L3.69,0.876 Z"></path>
                        <path d="M6.001,1.618 L2.733,21.785 L3.413,21.785 L6.601,2.112 C6.416,1.931 6.216,1.764 6.001,1.618 L6.001,1.618 Z"></path>
                    </g>
                    <g transform="translate(15.000000, 0.000000)" fill="#8DB3A9">
                        <path d="M3.646,0.876 L0.258,21.785 L1.851,21.785 L5.187,1.199 C4.711,1.001 4.189,0.895 3.646,0.876 L3.646,0.876 Z"></path>
                        <path d="M5.956,1.618 L2.688,21.785 L3.368,21.785 L6.556,2.112 C6.371,1.931 6.171,1.764 5.956,1.618 L5.956,1.618 Z"></path>
                    </g>
                    <g transform="translate(1.000000, 0.000000)" fill="#8DB3A9">
                        <path d="M3.603,0.876 L0.215,21.785 L1.808,21.785 L5.143,1.199 C4.667,1.001 4.146,0.895 3.603,0.876 L3.603,0.876 Z"></path>
                        <path d="M5.913,1.618 L2.645,21.785 L3.325,21.785 L6.512,2.112 C6.327,1.931 6.128,1.764 5.913,1.618 L5.913,1.618 Z"></path>
                    </g>
                </g>
            </g>
            <g id="Group" transform="translate(40.000000, 159.000000)" sketch:type="MSShapeGroup">
                <rect id="Rectangle-path" fill="#FED991" x="0.361" y="43.354" width="73.518" height="52.874"></rect>
                <rect id="Rectangle-path" fill="#754F38" x="4.602" y="9.649" width="65.045" height="29.474"></rect>
                <path d="M0.37,39.123 L0.37,6.259 L4.602,6.259 L4.602,39.123 L69.647,39.123 L69.647,6.259 L73.879,6.259 L73.879,39.123 L73.871,39.123 L73.871,43.354 L0.354,43.354 L0.354,39.123 L0.37,39.123 Z" id="Shape" fill="#593C2B"></path>
                <rect id="Rectangle-path" fill="#FED991" x="56.767" y="0.986" width="5.482" height="17.858"></rect>
                <g transform="translate(9.000000, 52.000000)" id="Shape">
                    <path d="M9.711,23.079 L0.127,23.079 L0.127,4.833 C0.127,2.182 2.272,0.039 4.914,0.039 L4.914,0.039 C7.566,0.039 9.711,2.182 9.711,4.833 L9.711,23.079 L9.711,23.079 Z" fill="#68847D"></path>
                    <path d="M25.178,23.079 L15.594,23.079 L15.594,4.833 C15.594,2.182 17.739,0.039 20.383,0.039 L20.383,0.039 C23.036,0.039 25.178,2.182 25.178,4.833 L25.178,23.079 L25.178,23.079 Z" fill="#68847D"></path>
                    <path d="M40.645,23.079 L31.063,23.079 L31.063,4.833 C31.063,2.182 33.206,0.039 35.848,0.039 L35.848,0.039 C38.502,0.039 40.645,2.182 40.645,4.833 L40.645,23.079 L40.645,23.079 Z" fill="#68847D"></path>
                    <path d="M56.113,23.079 L46.527,23.079 L46.527,4.833 C46.527,2.182 48.672,0.039 51.316,0.039 L51.316,0.039 C53.968,0.039 56.113,2.182 56.113,4.833 L56.113,23.079 L56.113,23.079 Z" fill="#68847D"></path>
                    <g transform="translate(16.000000, 0.000000)" fill="#8DB3A9">
                        <path d="M4.516,0.045 L0.785,23.072 L2.698,23.072 L6.361,0.462 C5.795,0.207 5.173,0.062 4.516,0.045 L4.516,0.045 Z"></path>
                        <path d="M7.278,1.016 L3.704,23.073 L4.52,23.073 L7.986,1.677 C7.772,1.433 7.537,1.212 7.278,1.016 L7.278,1.016 Z"></path>
                    </g>
                    <g transform="translate(1.000000, 0.000000)" fill="#8DB3A9">
                        <path d="M4.049,0.045 L0.318,23.072 L2.231,23.072 L5.894,0.462 C5.329,0.207 4.707,0.062 4.049,0.045 L4.049,0.045 Z"></path>
                        <path d="M6.811,1.016 L3.237,23.073 L4.053,23.073 L7.519,1.677 C7.306,1.433 7.071,1.212 6.811,1.016 L6.811,1.016 Z"></path>
                    </g>
                    <g transform="translate(32.000000, 0.000000)" fill="#8DB3A9">
                        <path d="M3.984,0.045 L0.253,23.072 L2.166,23.072 L5.829,0.462 C5.263,0.207 4.641,0.062 3.984,0.045 L3.984,0.045 Z"></path>
                        <path d="M6.746,1.016 L3.172,23.073 L3.988,23.073 L7.454,1.677 C7.24,1.433 7.005,1.212 6.746,1.016 L6.746,1.016 Z"></path>
                    </g>
                    <g transform="translate(47.000000, 0.000000)" fill="#8DB3A9">
                        <path d="M4.451,0.045 L0.72,23.072 L2.633,23.072 L6.296,0.462 C5.73,0.207 5.108,0.062 4.451,0.045 L4.451,0.045 Z"></path>
                        <path d="M7.212,1.016 L3.638,23.073 L4.454,23.073 L7.92,1.677 C7.707,1.433 7.472,1.212 7.212,1.016 L7.212,1.016 Z"></path>
                    </g>
                </g>
                <rect id="Rectangle-path" fill="#E6C483" x="0.354" y="81.15" width="73.525" height="15.078"></rect>
                <path d="M27.918,10.762 L18.711,19.512 L18.711,34.387 L37.117,34.387 L37.117,19.512 L37.125,19.512 L27.918,10.762 Z" id="Shape" fill="#FED991"></path>
                <path d="M39.795,19.866 L27.921,8.701 L27.918,8.705 L27.914,8.701 L16.041,19.866 L17.875,21.817 L27.918,12.373 L37.961,21.817 L39.795,19.866 Z" id="Shape" fill="#593C2B"></path>
                <rect id="Rectangle-path" fill="#593C2B" x="21.495" y="17.324" width="12.846" height="1.081"></rect>
                <rect id="Rectangle-path" fill="#68847D" x="23.125" y="20.608" width="9.586" height="11.764"></rect>
                <g transform="translate(24.000000, 20.000000)" id="Shape" fill="#8DB3A9">
                    <path d="M3.526,0.608 L0.57,12.372 L2.485,12.372 L5.441,0.608 L3.526,0.608 Z"></path>
                    <path d="M6.449,0.608 L3.493,12.372 L4.31,12.372 L7.266,0.608 L6.449,0.608 Z"></path>
                </g>
                <path d="M0.361,96.229 L73.879,96.229 L73.879,6.259 L0.361,96.229 Z" id="Shape" opacity="0.1" fill="#333333"></path>
            </g>
            <g id="Group" transform="translate(447.000000, 216.000000)" sketch:type="MSShapeGroup">
                <circle id="Oval" fill="#C6F81C" cx="12.374" cy="12.9" r="11.99"></circle>
                <path d="M12.375,24.887 L12.375,0.909 C5.753,0.909 0.384,6.279 0.384,12.897 C0.384,19.519 5.753,24.887 12.375,24.887 L12.375,24.887 Z" id="Shape" fill="#85BC02"></path>
                <rect id="Rectangle-path" fill="#754C24" x="10.782" y="18.125" width="3.185" height="21.104"></rect>
            </g>
            <path d="M483.962,246.396 C481.588,246.396 479.439,247.336 477.851,248.86 C475.735,245.525 472.018,243.302 467.779,243.302 C461.192,243.302 455.855,248.642 455.853,255.229 L492.797,255.229 C492.797,250.351 488.842,246.396 483.962,246.396 L483.962,246.396 Z" id="Shape" fill="#85BC02" sketch:type="MSShapeGroup"></path>
            <path d="M531.469,246.396 C533.842,246.396 535.992,247.336 537.58,248.86 C539.695,245.525 543.41,243.302 547.65,243.302 C554.238,243.302 559.578,248.642 559.578,255.229 L522.633,255.229 C522.635,250.351 526.59,246.396 531.469,246.396 L531.469,246.396 Z" id="Shape" fill="#768C42" sketch:type="MSShapeGroup"></path>
            <g id="Group" transform="translate(197.000000, 118.000000)" sketch:type="MSShapeGroup">
                <rect id="Rectangle-path" fill="#FFEABF" x="3.573" y="24.241" width="73.108" height="112.987"></rect>
                <rect id="Rectangle-path" fill="#534741" x="54.47" y="10.379" width="7.927" height="13.862"></rect>
                <rect id="Rectangle-path" fill="#534741" x="46.415" y="4.023" width="5.184" height="20.218"></rect>
                <g transform="translate(12.000000, 32.000000)" id="Shape">
                    <path d="M9.82,23.243 L0.29,23.243 L0.29,5.098 C0.29,2.46 2.423,0.327 5.052,0.327 L5.052,0.327 C7.689,0.327 9.82,2.46 9.82,5.098 L9.82,23.243 L9.82,23.243 Z" fill="#68847D"></path>
                    <path d="M25.201,23.243 L15.67,23.243 L15.67,5.098 C15.67,2.46 17.803,0.327 20.433,0.327 L20.433,0.327 C23.071,0.327 25.202,2.46 25.202,5.098 L25.202,23.243 L25.201,23.243 Z" fill="#68847D"></path>
                    <path d="M40.582,23.243 L31.053,23.243 L31.053,5.098 C31.053,2.46 33.186,0.327 35.814,0.327 L35.814,0.327 C38.454,0.327 40.583,2.46 40.583,5.098 L40.583,23.243 L40.582,23.243 Z" fill="#68847D"></path>
                    <path d="M55.967,23.243 L46.434,23.243 L46.434,5.098 C46.434,2.46 48.567,0.327 51.195,0.327 L51.195,0.327 C53.835,0.327 55.967,2.46 55.967,5.098 L55.967,23.243 L55.967,23.243 Z" fill="#68847D"></path>
                    <g transform="translate(47.000000, 0.000000)" fill="#8DB3A9">
                        <path d="M4.462,0.336 L0.752,23.235 L2.496,23.235 L6.149,0.689 C5.628,0.472 5.058,0.355 4.462,0.336 L4.462,0.336 Z"></path>
                        <path d="M6.992,1.147 L3.413,23.235 L4.157,23.235 L7.648,1.689 C7.446,1.49 7.227,1.309 6.992,1.147 L6.992,1.147 Z"></path>
                    </g>
                    <g transform="translate(32.000000, 0.000000)" fill="#8DB3A9">
                        <path d="M4.079,0.336 L0.369,23.235 L2.113,23.235 L5.766,0.689 C5.245,0.472 4.675,0.355 4.079,0.336 L4.079,0.336 Z"></path>
                        <path d="M6.609,1.147 L3.03,23.235 L3.774,23.235 L7.265,1.689 C7.063,1.49 6.844,1.309 6.609,1.147 L6.609,1.147 Z"></path>
                    </g>
                    <g transform="translate(16.000000, 0.000000)" fill="#8DB3A9">
                        <path d="M4.697,0.336 L0.987,23.235 L2.731,23.235 L6.384,0.689 C5.863,0.472 5.292,0.355 4.697,0.336 L4.697,0.336 Z"></path>
                        <path d="M7.228,1.147 L3.649,23.235 L4.393,23.235 L7.884,1.689 C7.682,1.49 7.462,1.309 7.228,1.147 L7.228,1.147 Z"></path>
                    </g>
                    <g transform="translate(1.000000, 0.000000)" fill="#8DB3A9">
                        <path d="M4.317,0.336 L0.607,23.235 L2.352,23.235 L6.004,0.689 C5.483,0.472 4.913,0.355 4.317,0.336 L4.317,0.336 Z"></path>
                        <path d="M6.847,1.147 L3.268,23.235 L4.013,23.235 L7.504,1.689 C7.301,1.49 7.083,1.309 6.847,1.147 L6.847,1.147 Z"></path>
                    </g>
                </g>
                <g transform="translate(12.000000, 67.000000)" id="Shape">
                    <path d="M9.82,23.645 L0.29,23.645 L0.29,5.5 C0.29,2.862 2.423,0.729 5.052,0.729 L5.052,0.729 C7.689,0.729 9.82,2.862 9.82,5.5 L9.82,23.645 L9.82,23.645 Z" fill="#68847D"></path>
                    <path d="M25.201,23.645 L15.67,23.645 L15.67,5.5 C15.67,2.862 17.803,0.729 20.433,0.729 L20.433,0.729 C23.071,0.729 25.202,2.862 25.202,5.5 L25.202,23.645 L25.201,23.645 Z" fill="#68847D"></path>
                    <path d="M40.582,23.645 L31.053,23.645 L31.053,5.5 C31.053,2.862 33.186,0.729 35.814,0.729 L35.814,0.729 C38.454,0.729 40.583,2.862 40.583,5.5 L40.583,23.645 L40.582,23.645 Z" fill="#68847D"></path>
                    <path d="M55.967,23.645 L46.434,23.645 L46.434,5.5 C46.434,2.862 48.567,0.729 51.195,0.729 L51.195,0.729 C53.835,0.729 55.967,2.862 55.967,5.5 L55.967,23.645 L55.967,23.645 Z" fill="#68847D"></path>
                    <g transform="translate(47.000000, 0.000000)" fill="#8DB3A9">
                        <path d="M4.462,0.738 L0.752,23.636 L2.496,23.636 L6.149,1.091 C5.628,0.874 5.058,0.757 4.462,0.738 L4.462,0.738 Z"></path>
                        <path d="M6.992,1.55 L3.413,23.637 L4.157,23.637 L7.648,2.091 C7.446,1.893 7.227,1.71 6.992,1.55 L6.992,1.55 Z"></path>
                    </g>
                    <g transform="translate(32.000000, 0.000000)" fill="#8DB3A9">
                        <path d="M4.079,0.738 L0.369,23.636 L2.113,23.636 L5.766,1.091 C5.245,0.874 4.675,0.757 4.079,0.738 L4.079,0.738 Z"></path>
                        <path d="M6.609,1.55 L3.03,23.637 L3.774,23.637 L7.265,2.091 C7.063,1.893 6.844,1.71 6.609,1.55 L6.609,1.55 Z"></path>
                    </g>
                    <g transform="translate(16.000000, 0.000000)" fill="#8DB3A9">
                        <path d="M4.697,0.738 L0.987,23.636 L2.731,23.636 L6.384,1.091 C5.863,0.874 5.292,0.757 4.697,0.738 L4.697,0.738 Z"></path>
                        <path d="M7.228,1.55 L3.649,23.637 L4.393,23.637 L7.884,2.091 C7.682,1.893 7.462,1.71 7.228,1.55 L7.228,1.55 Z"></path>
                    </g>
                    <g transform="translate(1.000000, 0.000000)" fill="#8DB3A9">
                        <path d="M4.317,0.738 L0.607,23.636 L2.352,23.636 L6.004,1.091 C5.483,0.874 4.913,0.757 4.317,0.738 L4.317,0.738 Z"></path>
                        <path d="M6.847,1.55 L3.268,23.637 L4.013,23.637 L7.504,2.091 C7.301,1.893 7.083,1.71 6.847,1.55 L6.847,1.55 Z"></path>
                    </g>
                </g>
                <rect id="Rectangle-path" fill="#68847D" x="12.291" y="104.09" width="35.527" height="19.672"></rect>
                <rect id="Rectangle-path" fill="#998675" x="1.466" y="126.746" width="77.317" height="10.482"></rect>
                <rect id="Rectangle-path" fill="#534741" x="53.055" y="104.09" width="14.912" height="29.588"></rect>
                <rect id="Rectangle-path" fill="#998675" x="1.466" y="59.659" width="77.317" height="3.652"></rect>
                <rect id="Rectangle-path" fill="#998675" x="1.466" y="95.029" width="77.317" height="3.652"></rect>
                <rect id="Rectangle-path" fill="#998675" x="1.466" y="22.414" width="77.317" height="3.652"></rect>
                <rect id="Rectangle-path" fill="#736357" x="0.011" y="16.603" width="80.227" height="6.924"></rect>
                <rect id="Rectangle-path" fill="#68847D" x="55.133" y="108.372" width="10.755" height="21.023"></rect>
                <g transform="translate(25.000000, 104.000000)" id="Shape" fill="#8DB3A9">
                    <path d="M10.217,0.012 L7.436,0.012 L0.435,19.762 L3.217,19.762 L10.217,0.012 Z"></path>
                    <path d="M13.347,0.012 L11.603,0.012 L4.602,19.762 L6.346,19.762 L13.347,0.012 Z"></path>
                </g>
                <g transform="translate(56.000000, 108.000000)" id="Shape" fill="#8DB3A9">
                    <path d="M7.661,0.245 L5.616,0.245 L0.472,21.396 L2.516,21.396 L7.661,0.245 Z"></path>
                    <path d="M9.96,0.245 L8.678,0.245 L3.534,21.396 L4.816,21.396 L9.96,0.245 Z"></path>
                </g>
                <g transform="translate(7.000000, 100.000000)">
                    <g transform="translate(0.000000, 11.000000)" id="Oval">
                        <circle fill="#F2F2F2" cx="63.263" cy="3.095" r="2.151"></circle>
                        <circle fill="#A82227" cx="58.961" cy="3.095" r="2.151"></circle>
                        <circle fill="#F2F2F2" cx="54.659" cy="3.095" r="2.151"></circle>
                        <circle fill="#A82227" cx="50.357" cy="3.095" r="2.151"></circle>
                        <circle fill="#F2F2F2" cx="46.055" cy="3.095" r="2.151"></circle>
                        <circle fill="#A82227" cx="41.751" cy="3.095" r="2.152"></circle>
                        <circle fill="#F2F2F2" cx="37.449" cy="3.095" r="2.151"></circle>
                        <circle fill="#A82227" cx="33.146" cy="3.095" r="2.152"></circle>
                        <circle fill="#F2F2F2" cx="28.842" cy="3.095" r="2.151"></circle>
                        <circle fill="#A82227" cx="24.54" cy="3.095" r="2.151"></circle>
                        <circle fill="#F2F2F2" cx="20.238" cy="3.095" r="2.151"></circle>
                        <circle fill="#A82227" cx="15.935" cy="3.095" r="2.152"></circle>
                        <circle fill="#F2F2F2" cx="11.633" cy="3.095" r="2.151"></circle>
                        <circle fill="#A82227" cx="7.33" cy="3.095" r="2.151"></circle>
                        <circle fill="#F2F2F2" cx="3.028" cy="3.095" r="2.151"></circle>
                    </g>
                    <rect id="Rectangle-path" fill="#C1272D" x="0.877" y="0.342" width="64.537" height="13.753"></rect>
                    <rect id="Rectangle-path" fill="#FFFFFF" x="61.112" y="0.342" width="4.302" height="13.753"></rect>
                    <rect id="Rectangle-path" fill="#FFFFFF" x="52.508" y="0.342" width="4.302" height="13.753"></rect>
                    <rect id="Rectangle-path" fill="#FFFFFF" x="43.904" y="0.342" width="4.302" height="13.753"></rect>
                    <rect id="Rectangle-path" fill="#FFFFFF" x="35.298" y="0.342" width="4.302" height="13.753"></rect>
                    <rect id="Rectangle-path" fill="#FFFFFF" x="26.691" y="0.342" width="4.302" height="13.753"></rect>
                    <rect id="Rectangle-path" fill="#FFFFFF" x="18.087" y="0.342" width="4.302" height="13.753"></rect>
                    <rect id="Rectangle-path" fill="#FFFFFF" x="9.481" y="0.342" width="4.302" height="13.753"></rect>
                    <rect id="Rectangle-path" fill="#FFFFFF" x="0.877" y="0.342" width="4.302" height="13.753"></rect>
                </g>
                <rect id="Rectangle-path" fill="#736357" x="50.831" y="134.295" width="19.359" height="2.934"></rect>
                <rect id="Rectangle-path" fill="#998675" x="12.291" y="2.841" width="24.911" height="13.762"></rect>
                <rect id="Rectangle-path" fill="#736357" x="11.371" y="0.678" width="26.75" height="2.163"></rect>
                <rect id="Rectangle-path" fill="#736357" x="50.198" y="133.678" width="20.625" height="0.617"></rect>
            </g>
            <g id="Group" transform="translate(111.000000, 98.000000)" sketch:type="MSShapeGroup">
                <rect id="Rectangle-path" fill="#8FEDD1" x="2.734" y="42.632" width="73.518" height="114.597"></rect>
                <rect id="Rectangle-path" fill="#754F38" x="6.966" y="10.926" width="65.045" height="29.475"></rect>
                <path d="M76.242,40.4 L76.242,7.536 L72.011,7.536 L72.011,40.4 L6.966,40.4 L6.966,7.536 L2.734,7.536 L2.734,40.4 L2.744,40.4 L2.744,44.632 L76.257,44.632 L76.257,40.4 L76.242,40.4 Z" id="Shape" fill="#593C2B"></path>
                <rect id="Rectangle-path" fill="#593C2B" x="56.134" y="0.264" width="6.085" height="21.701"></rect>
                <g transform="translate(11.000000, 51.000000)" id="Shape">
                    <path d="M10.083,23.828 L0.5,23.828 L0.5,5.582 C0.5,2.931 2.645,0.788 5.287,0.788 L5.287,0.788 C7.939,0.788 10.084,2.931 10.084,5.582 L10.084,23.828 L10.083,23.828 Z" fill="#68847D"></path>
                    <path d="M25.55,23.828 L15.966,23.828 L15.966,5.582 C15.966,2.931 18.111,0.788 20.755,0.788 L20.755,0.788 C23.407,0.788 25.55,2.931 25.55,5.582 L25.55,23.828 L25.55,23.828 Z" fill="#68847D"></path>
                    <path d="M41.017,23.828 L31.435,23.828 L31.435,5.582 C31.435,2.931 33.578,0.788 36.22,0.788 L36.22,0.788 C38.874,0.788 41.017,2.931 41.017,5.582 L41.017,23.828 L41.017,23.828 Z" fill="#68847D"></path>
                    <path d="M56.486,23.828 L46.9,23.828 L46.9,5.582 C46.9,2.931 49.045,0.788 51.689,0.788 L51.689,0.788 C54.341,0.788 56.486,2.931 56.486,5.582 L56.486,23.828 L56.486,23.828 Z" fill="#68847D"></path>
                    <g transform="translate(17.000000, 0.000000)" fill="#8DB3A9">
                        <path d="M3.888,0.795 L0.158,23.822 L2.071,23.822 L5.734,1.212 C5.168,0.957 4.546,0.812 3.888,0.795 L3.888,0.795 Z"></path>
                        <path d="M6.65,1.766 L3.076,23.823 L3.892,23.823 L7.359,2.427 C7.145,2.183 6.91,1.961 6.65,1.766 L6.65,1.766 Z"></path>
                    </g>
                    <g transform="translate(1.000000, 0.000000)" fill="#8DB3A9">
                        <path d="M4.421,0.795 L0.691,23.822 L2.604,23.822 L6.267,1.212 C5.701,0.957 5.079,0.812 4.421,0.795 L4.421,0.795 Z"></path>
                        <path d="M7.184,1.766 L3.61,23.823 L4.426,23.823 L7.892,2.427 C7.678,2.183 7.443,1.961 7.184,1.766 L7.184,1.766 Z"></path>
                    </g>
                    <g transform="translate(32.000000, 0.000000)" fill="#8DB3A9">
                        <path d="M4.356,0.795 L0.626,23.822 L2.539,23.822 L6.202,1.212 C5.636,0.957 5.014,0.812 4.356,0.795 L4.356,0.795 Z"></path>
                        <path d="M7.118,1.766 L3.544,23.823 L4.36,23.823 L7.827,2.427 C7.613,2.183 7.377,1.961 7.118,1.766 L7.118,1.766 Z"></path>
                    </g>
                    <g transform="translate(48.000000, 0.000000)" fill="#8DB3A9">
                        <path d="M3.823,0.795 L0.093,23.822 L2.006,23.822 L5.669,1.212 C5.103,0.957 4.48,0.812 3.823,0.795 L3.823,0.795 Z"></path>
                        <path d="M6.585,1.766 L3.011,23.823 L3.827,23.823 L7.294,2.427 C7.08,2.183 6.844,1.961 6.585,1.766 L6.585,1.766 Z"></path>
                    </g>
                </g>
                <g transform="translate(11.000000, 85.000000)" id="Shape">
                    <path d="M10.083,23.383 L0.5,23.383 L0.5,5.137 C0.5,2.486 2.645,0.343 5.287,0.343 L5.287,0.343 C7.939,0.343 10.084,2.486 10.084,5.137 L10.084,23.383 L10.083,23.383 Z" fill="#68847D"></path>
                    <path d="M25.55,23.383 L15.966,23.383 L15.966,5.137 C15.966,2.486 18.111,0.343 20.755,0.343 L20.755,0.343 C23.407,0.343 25.55,2.486 25.55,5.137 L25.55,23.383 L25.55,23.383 Z" fill="#68847D"></path>
                    <path d="M41.017,23.383 L31.435,23.383 L31.435,5.137 C31.435,2.486 33.578,0.343 36.22,0.343 L36.22,0.343 C38.874,0.343 41.017,2.486 41.017,5.137 L41.017,23.383 L41.017,23.383 Z" fill="#68847D"></path>
                    <path d="M56.486,23.383 L46.9,23.383 L46.9,5.137 C46.9,2.486 49.045,0.343 51.689,0.343 L51.689,0.343 C54.341,0.343 56.486,2.486 56.486,5.137 L56.486,23.383 L56.486,23.383 Z" fill="#68847D"></path>
                    <g transform="translate(17.000000, 0.000000)" fill="#8DB3A9">
                        <path d="M3.888,0.349 L0.158,23.377 L2.071,23.377 L5.734,0.767 C5.168,0.512 4.546,0.365 3.888,0.349 L3.888,0.349 Z"></path>
                        <path d="M6.65,1.319 L3.076,23.377 L3.892,23.377 L7.359,1.981 C7.145,1.737 6.91,1.516 6.65,1.319 L6.65,1.319 Z"></path>
                    </g>
                    <g transform="translate(1.000000, 0.000000)" fill="#8DB3A9">
                        <path d="M4.421,0.349 L0.691,23.377 L2.604,23.377 L6.267,0.767 C5.701,0.512 5.079,0.365 4.421,0.349 L4.421,0.349 Z"></path>
                        <path d="M7.184,1.319 L3.61,23.377 L4.426,23.377 L7.892,1.981 C7.678,1.737 7.443,1.516 7.184,1.319 L7.184,1.319 Z"></path>
                    </g>
                    <g transform="translate(32.000000, 0.000000)" fill="#8DB3A9">
                        <path d="M4.356,0.349 L0.626,23.377 L2.539,23.377 L6.202,0.767 C5.636,0.512 5.014,0.365 4.356,0.349 L4.356,0.349 Z"></path>
                        <path d="M7.118,1.319 L3.544,23.377 L4.36,23.377 L7.827,1.981 C7.613,1.737 7.377,1.516 7.118,1.319 L7.118,1.319 Z"></path>
                    </g>
                    <g transform="translate(48.000000, 0.000000)" fill="#8DB3A9">
                        <path d="M3.823,0.349 L0.093,23.377 L2.006,23.377 L5.669,0.767 C5.103,0.512 4.48,0.365 3.823,0.349 L3.823,0.349 Z"></path>
                        <path d="M6.585,1.319 L3.011,23.377 L3.827,23.377 L7.294,1.981 C7.08,1.737 6.844,1.516 6.585,1.319 L6.585,1.319 Z"></path>
                    </g>
                </g>
                <rect id="Rectangle-path" fill="#68847D" x="42.245" y="123.904" width="9.584" height="18.246"></rect>
                <rect id="Rectangle-path" fill="#68847D" x="57.9" y="123.904" width="9.586" height="18.246"></rect>
                <rect id="Rectangle-path" fill="#7ED1B8" x="0.615" y="146.724" width="77.748" height="10.505"></rect>
                <rect id="Rectangle-path" fill="#754F38" x="11.5" y="123.904" width="15.467" height="28.732"></rect>
                <path d="M19.235,148.384 L19.231,148.384 C16.585,148.384 14.441,146.238 14.441,143.594 L14.441,132.948 C14.441,130.302 16.586,128.158 19.231,128.158 L19.235,128.158 C21.881,128.158 24.025,130.303 24.025,132.948 L24.025,143.594 C24.025,146.238 21.88,148.384 19.235,148.384 L19.235,148.384 Z" id="Shape" fill="#68847D"></path>
                <path d="M9.92,152.387 L9.92,153.303 L10.664,153.303 L10.664,157.229 L27.802,157.229 L27.802,153.303 L28.545,153.303 L28.545,152.387 L9.92,152.387 Z" id="Shape" fill="#593C2B"></path>
                <path d="M35.55,129.012 L32.758,129.012 C32.206,129.012 31.758,128.564 31.758,128.012 L31.758,124.905 C31.758,124.352 32.206,123.905 32.758,123.905 L35.55,123.905 C36.102,123.905 36.55,124.352 36.55,124.905 L36.55,128.012 C36.55,128.563 36.103,129.012 35.55,129.012 L35.55,129.012 Z" id="Shape" fill="#7ED1B8"></path>
                <rect id="Rectangle-path" fill="#7ED1B8" x="0.615" y="114.012" width="77.748" height="3.5"></rect>
                <path d="M37.765,22.888 L19.793,35.512 L59.186,35.512 L41.214,22.888 C40.179,22.161 38.799,22.161 37.765,22.888 L37.765,22.888 Z" id="Shape" fill="#7ED1B8"></path>
                <path d="M38.339,26.471 L25.468,35.512 L53.508,35.512 L40.637,26.471 C39.949,25.986 39.029,25.986 38.339,26.471 L38.339,26.471 Z" id="Shape" fill="#8FEDD1"></path>
                <g transform="translate(43.000000, 123.000000)" id="Shape" fill="#8DB3A9">
                    <path d="M3.646,0.904 L0.689,19.15 L2.604,19.15 L5.561,0.904 L3.646,0.904 Z"></path>
                    <path d="M6.568,0.904 L3.612,19.15 L4.429,19.15 L7.385,0.904 L6.568,0.904 Z"></path>
                </g>
                <g transform="translate(16.000000, 128.000000)" id="Shape" fill="#8DB3A9">
                    <path d="M3.235,0.157 L3.231,0.157 C3.059,0.157 2.895,0.189 2.728,0.208 L0.148,19.231 C0.663,19.668 1.266,19.994 1.934,20.183 L4.619,0.383 C4.178,0.25 3.72,0.157 3.235,0.157 L3.235,0.157 Z"></path>
                    <path d="M5.571,0.789 L2.919,20.351 C3.024,20.358 3.124,20.383 3.231,20.383 L3.235,20.383 C3.408,20.383 3.571,20.35 3.739,20.332 L6.318,1.308 C6.086,1.112 5.838,0.939 5.571,0.789 L5.571,0.789 Z"></path>
                </g>
                <g transform="translate(59.000000, 123.000000)" id="Shape" fill="#8DB3A9">
                    <path d="M3.301,0.904 L0.345,19.15 L2.26,19.15 L5.216,0.904 L3.301,0.904 Z"></path>
                    <path d="M6.224,0.904 L3.268,19.15 L4.085,19.15 L7.041,0.904 L6.224,0.904 Z"></path>
                </g>
            </g>
            <g id="Group" transform="translate(419.000000, 102.000000)" sketch:type="MSShapeGroup">
                <rect id="Rectangle-path" fill="#FDC17F" x="2.1" y="43.633" width="73.518" height="109.596"></rect>
                <rect id="Rectangle-path" fill="#EBB375" x="2.1" y="114.344" width="73.518" height="38.885"></rect>
                <rect id="Rectangle-path" fill="#754F38" x="6.332" y="9.927" width="65.045" height="29.475"></rect>
                <path d="M75.608,39.401 L75.608,6.537 L71.377,6.537 L71.377,39.401 L6.332,39.401 L6.332,6.537 L2.1,6.537 L2.1,39.401 L2.108,39.401 L2.108,43.633 L75.624,43.633 L75.624,39.401 L75.608,39.401 Z" id="Shape" fill="#593C2B"></path>
                <rect id="Rectangle-path" fill="#FDC17F" x="53.552" y="3.138" width="6.033" height="19.828"></rect>
                <rect id="Rectangle-path" fill="#FDC17F" x="47.522" y="0.013" width="3.33" height="19.827"></rect>
                <g transform="translate(10.000000, 51.000000)" id="Shape">
                    <path d="M10.449,23.829 L0.865,23.829 L0.865,5.583 C0.865,2.932 3.01,0.789 5.652,0.789 L5.652,0.789 C8.304,0.789 10.449,2.932 10.449,5.583 L10.449,23.829 L10.449,23.829 Z" fill="#68847D"></path>
                    <path d="M25.916,23.829 L16.332,23.829 L16.332,5.583 C16.332,2.932 18.477,0.789 21.121,0.789 L21.121,0.789 C23.773,0.789 25.916,2.932 25.916,5.583 L25.916,23.829 L25.916,23.829 Z" fill="#68847D"></path>
                    <path d="M41.383,23.829 L31.801,23.829 L31.801,5.583 C31.801,2.932 33.944,0.789 36.586,0.789 L36.586,0.789 C39.24,0.789 41.383,2.932 41.383,5.583 L41.383,23.829 L41.383,23.829 Z" fill="#68847D"></path>
                    <path d="M56.852,23.829 L47.266,23.829 L47.266,5.583 C47.266,2.932 49.411,0.789 52.055,0.789 L52.055,0.789 C54.707,0.789 56.852,2.932 56.852,5.583 L56.852,23.829 L56.852,23.829 Z" fill="#68847D"></path>
                    <g transform="translate(17.000000, 0.000000)" fill="#8DB3A9">
                        <path d="M4.254,0.795 L0.524,23.822 L2.437,23.822 L6.1,1.212 C5.534,0.957 4.911,0.812 4.254,0.795 L4.254,0.795 Z"></path>
                        <path d="M7.016,1.766 L3.443,23.823 L4.259,23.823 L7.725,2.427 C7.511,2.184 7.275,1.962 7.016,1.766 L7.016,1.766 Z"></path>
                    </g>
                    <g transform="translate(2.000000, 0.000000)" fill="#8DB3A9">
                        <path d="M3.787,0.795 L0.057,23.822 L1.97,23.822 L5.633,1.212 C5.067,0.957 4.444,0.812 3.787,0.795 L3.787,0.795 Z"></path>
                        <path d="M6.549,1.766 L2.976,23.823 L3.792,23.823 L7.258,2.427 C7.044,2.184 6.809,1.962 6.549,1.766 L6.549,1.766 Z"></path>
                    </g>
                    <g transform="translate(32.000000, 0.000000)" fill="#8DB3A9">
                        <path d="M4.722,0.795 L0.992,23.822 L2.905,23.822 L6.568,1.212 C6.002,0.957 5.379,0.812 4.722,0.795 L4.722,0.795 Z"></path>
                        <path d="M7.483,1.766 L3.91,23.823 L4.726,23.823 L8.192,2.427 C7.979,2.184 7.743,1.962 7.483,1.766 L7.483,1.766 Z"></path>
                    </g>
                    <g transform="translate(48.000000, 0.000000)" fill="#8DB3A9">
                        <path d="M4.188,0.795 L0.458,23.822 L2.371,23.822 L6.034,1.212 C5.469,0.957 4.846,0.812 4.188,0.795 L4.188,0.795 Z"></path>
                        <path d="M6.95,1.766 L3.377,23.823 L4.193,23.823 L7.659,2.427 C7.445,2.184 7.21,1.962 6.95,1.766 L6.95,1.766 Z"></path>
                    </g>
                </g>
                <g transform="translate(10.000000, 86.000000)" id="Shape">
                    <path d="M10.449,23.383 L0.865,23.383 L0.865,5.137 C0.865,2.486 3.01,0.343 5.652,0.343 L5.652,0.343 C8.304,0.343 10.449,2.486 10.449,5.137 L10.449,23.383 L10.449,23.383 Z" fill="#68847D"></path>
                    <path d="M25.916,23.383 L16.332,23.383 L16.332,5.137 C16.332,2.486 18.477,0.343 21.121,0.343 L21.121,0.343 C23.773,0.343 25.916,2.486 25.916,5.137 L25.916,23.383 L25.916,23.383 Z" fill="#68847D"></path>
                    <path d="M41.383,23.383 L31.801,23.383 L31.801,5.137 C31.801,2.486 33.944,0.343 36.586,0.343 L36.586,0.343 C39.24,0.343 41.383,2.486 41.383,5.137 L41.383,23.383 L41.383,23.383 Z" fill="#68847D"></path>
                    <path d="M56.852,23.383 L47.266,23.383 L47.266,5.137 C47.266,2.486 49.411,0.343 52.055,0.343 L52.055,0.343 C54.707,0.343 56.852,2.486 56.852,5.137 L56.852,23.383 L56.852,23.383 Z" fill="#68847D"></path>
                    <g transform="translate(17.000000, 0.000000)" fill="#8DB3A9">
                        <path d="M4.254,0.349 L0.524,23.377 L2.437,23.377 L6.1,0.767 C5.534,0.512 4.911,0.366 4.254,0.349 L4.254,0.349 Z"></path>
                        <path d="M7.016,1.319 L3.443,23.377 L4.259,23.377 L7.725,1.981 C7.511,1.737 7.275,1.516 7.016,1.319 L7.016,1.319 Z"></path>
                    </g>
                    <g transform="translate(2.000000, 0.000000)" fill="#8DB3A9">
                        <path d="M3.787,0.349 L0.057,23.377 L1.97,23.377 L5.633,0.767 C5.067,0.512 4.444,0.366 3.787,0.349 L3.787,0.349 Z"></path>
                        <path d="M6.549,1.319 L2.976,23.377 L3.792,23.377 L7.258,1.981 C7.044,1.737 6.809,1.516 6.549,1.319 L6.549,1.319 Z"></path>
                    </g>
                    <g transform="translate(32.000000, 0.000000)" fill="#8DB3A9">
                        <path d="M4.722,0.349 L0.992,23.377 L2.905,23.377 L6.568,0.767 C6.002,0.512 5.379,0.366 4.722,0.349 L4.722,0.349 Z"></path>
                        <path d="M7.483,1.319 L3.91,23.377 L4.726,23.377 L8.192,1.981 C7.979,1.737 7.743,1.516 7.483,1.319 L7.483,1.319 Z"></path>
                    </g>
                    <g transform="translate(48.000000, 0.000000)" fill="#8DB3A9">
                        <path d="M4.188,0.349 L0.458,23.377 L2.371,23.377 L6.034,0.767 C5.469,0.512 4.846,0.366 4.188,0.349 L4.188,0.349 Z"></path>
                        <path d="M6.95,1.319 L3.377,23.377 L4.193,23.377 L7.659,1.981 C7.445,1.737 7.21,1.516 6.95,1.319 L6.95,1.319 Z"></path>
                    </g>
                </g>
                <g transform="translate(10.000000, 119.000000)" id="Shape">
                    <path d="M10.449,23.945 L0.865,23.945 L0.865,5.699 C0.865,3.048 3.01,0.905 5.652,0.905 L5.652,0.905 C8.304,0.905 10.449,3.048 10.449,5.699 L10.449,23.945 L10.449,23.945 Z" fill="#68847D"></path>
                    <path d="M25.916,23.945 L16.332,23.945 L16.332,5.699 C16.332,3.048 18.477,0.905 21.121,0.905 L21.121,0.905 C23.773,0.905 25.916,3.048 25.916,5.699 L25.916,23.945 L25.916,23.945 Z" fill="#68847D"></path>
                    <path d="M41.383,23.945 L31.801,23.945 L31.801,5.699 C31.801,3.048 33.944,0.905 36.586,0.905 L36.586,0.905 C39.24,0.905 41.383,3.048 41.383,5.699 L41.383,23.945 L41.383,23.945 Z" fill="#68847D"></path>
                    <path d="M56.852,23.945 L47.266,23.945 L47.266,5.699 C47.266,3.048 49.411,0.905 52.055,0.905 L52.055,0.905 C54.707,0.905 56.852,3.048 56.852,5.699 L56.852,23.945 L56.852,23.945 Z" fill="#68847D"></path>
                    <g transform="translate(17.000000, 0.000000)" fill="#8DB3A9">
                        <path d="M4.254,0.911 L0.524,23.938 L2.437,23.938 L6.1,1.328 C5.534,1.074 4.911,0.928 4.254,0.911 L4.254,0.911 Z"></path>
                        <path d="M7.016,1.882 L3.443,23.939 L4.259,23.939 L7.725,2.543 C7.511,2.299 7.275,2.078 7.016,1.882 L7.016,1.882 Z"></path>
                    </g>
                    <g transform="translate(2.000000, 0.000000)" fill="#8DB3A9">
                        <path d="M3.787,0.911 L0.057,23.938 L1.97,23.938 L5.633,1.328 C5.067,1.074 4.444,0.928 3.787,0.911 L3.787,0.911 Z"></path>
                        <path d="M6.549,1.882 L2.976,23.939 L3.792,23.939 L7.258,2.543 C7.044,2.299 6.809,2.078 6.549,1.882 L6.549,1.882 Z"></path>
                    </g>
                    <g transform="translate(32.000000, 0.000000)" fill="#8DB3A9">
                        <path d="M4.722,0.911 L0.992,23.938 L2.905,23.938 L6.568,1.328 C6.002,1.074 5.379,0.928 4.722,0.911 L4.722,0.911 Z"></path>
                        <path d="M7.483,1.882 L3.91,23.939 L4.726,23.939 L8.192,2.543 C7.979,2.299 7.743,2.078 7.483,1.882 L7.483,1.882 Z"></path>
                    </g>
                    <g transform="translate(48.000000, 0.000000)" fill="#8DB3A9">
                        <path d="M4.188,0.911 L0.458,23.938 L2.371,23.938 L6.034,1.328 C5.469,1.074 4.846,0.928 4.188,0.911 L4.188,0.911 Z"></path>
                        <path d="M6.95,1.882 L3.377,23.939 L4.193,23.939 L7.659,2.543 C7.445,2.299 7.21,2.078 6.95,1.882 L6.95,1.882 Z"></path>
                    </g>
                </g>
                <rect id="Rectangle-path" fill="#EBB375" x="0.608" y="79.427" width="76.5" height="2.506"></rect>
            </g>
            <g id="Group" transform="translate(419.000000, 102.000000)" sketch:type="MSShapeGroup">
                <rect id="Rectangle-path" fill="#FDC17F" x="2.1" y="43.633" width="73.518" height="109.596"></rect>
                <rect id="Rectangle-path" fill="#EBB375" x="2.1" y="114.344" width="73.518" height="38.885"></rect>
                <rect id="Rectangle-path" fill="#754F38" x="6.332" y="9.927" width="65.045" height="29.475"></rect>
                <path d="M75.608,39.401 L75.608,6.537 L71.377,6.537 L71.377,39.401 L6.332,39.401 L6.332,6.537 L2.1,6.537 L2.1,39.401 L2.108,39.401 L2.108,43.633 L75.624,43.633 L75.624,39.401 L75.608,39.401 Z" id="Shape" fill="#593C2B"></path>
                <rect id="Rectangle-path" fill="#FDC17F" x="53.552" y="3.138" width="6.033" height="19.828"></rect>
                <rect id="Rectangle-path" fill="#FDC17F" x="47.522" y="0.013" width="3.33" height="19.827"></rect>
                <g transform="translate(10.000000, 51.000000)" id="Shape">
                    <path d="M10.449,23.829 L0.865,23.829 L0.865,5.583 C0.865,2.932 3.01,0.789 5.652,0.789 L5.652,0.789 C8.304,0.789 10.449,2.932 10.449,5.583 L10.449,23.829 L10.449,23.829 Z" fill="#68847D"></path>
                    <path d="M25.916,23.829 L16.332,23.829 L16.332,5.583 C16.332,2.932 18.477,0.789 21.121,0.789 L21.121,0.789 C23.773,0.789 25.916,2.932 25.916,5.583 L25.916,23.829 L25.916,23.829 Z" fill="#68847D"></path>
                    <path d="M41.383,23.829 L31.801,23.829 L31.801,5.583 C31.801,2.932 33.944,0.789 36.586,0.789 L36.586,0.789 C39.24,0.789 41.383,2.932 41.383,5.583 L41.383,23.829 L41.383,23.829 Z" fill="#68847D"></path>
                    <path d="M56.852,23.829 L47.266,23.829 L47.266,5.583 C47.266,2.932 49.411,0.789 52.055,0.789 L52.055,0.789 C54.707,0.789 56.852,2.932 56.852,5.583 L56.852,23.829 L56.852,23.829 Z" fill="#68847D"></path>
                    <g transform="translate(17.000000, 0.000000)" fill="#8DB3A9">
                        <path d="M4.254,0.795 L0.524,23.822 L2.437,23.822 L6.1,1.212 C5.534,0.957 4.911,0.812 4.254,0.795 L4.254,0.795 Z"></path>
                        <path d="M7.016,1.766 L3.443,23.823 L4.259,23.823 L7.725,2.427 C7.511,2.184 7.275,1.962 7.016,1.766 L7.016,1.766 Z"></path>
                    </g>
                    <g transform="translate(2.000000, 0.000000)" fill="#8DB3A9">
                        <path d="M3.787,0.795 L0.057,23.822 L1.97,23.822 L5.633,1.212 C5.067,0.957 4.444,0.812 3.787,0.795 L3.787,0.795 Z"></path>
                        <path d="M6.549,1.766 L2.976,23.823 L3.792,23.823 L7.258,2.427 C7.044,2.184 6.809,1.962 6.549,1.766 L6.549,1.766 Z"></path>
                    </g>
                    <g transform="translate(32.000000, 0.000000)" fill="#8DB3A9">
                        <path d="M4.722,0.795 L0.992,23.822 L2.905,23.822 L6.568,1.212 C6.002,0.957 5.379,0.812 4.722,0.795 L4.722,0.795 Z"></path>
                        <path d="M7.483,1.766 L3.91,23.823 L4.726,23.823 L8.192,2.427 C7.979,2.184 7.743,1.962 7.483,1.766 L7.483,1.766 Z"></path>
                    </g>
                    <g transform="translate(48.000000, 0.000000)" fill="#8DB3A9">
                        <path d="M4.188,0.795 L0.458,23.822 L2.371,23.822 L6.034,1.212 C5.469,0.957 4.846,0.812 4.188,0.795 L4.188,0.795 Z"></path>
                        <path d="M6.95,1.766 L3.377,23.823 L4.193,23.823 L7.659,2.427 C7.445,2.184 7.21,1.962 6.95,1.766 L6.95,1.766 Z"></path>
                    </g>
                </g>
                <g transform="translate(10.000000, 86.000000)" id="Shape">
                    <path d="M10.449,23.383 L0.865,23.383 L0.865,5.137 C0.865,2.486 3.01,0.343 5.652,0.343 L5.652,0.343 C8.304,0.343 10.449,2.486 10.449,5.137 L10.449,23.383 L10.449,23.383 Z" fill="#68847D"></path>
                    <path d="M25.916,23.383 L16.332,23.383 L16.332,5.137 C16.332,2.486 18.477,0.343 21.121,0.343 L21.121,0.343 C23.773,0.343 25.916,2.486 25.916,5.137 L25.916,23.383 L25.916,23.383 Z" fill="#68847D"></path>
                    <path d="M41.383,23.383 L31.801,23.383 L31.801,5.137 C31.801,2.486 33.944,0.343 36.586,0.343 L36.586,0.343 C39.24,0.343 41.383,2.486 41.383,5.137 L41.383,23.383 L41.383,23.383 Z" fill="#68847D"></path>
                    <path d="M56.852,23.383 L47.266,23.383 L47.266,5.137 C47.266,2.486 49.411,0.343 52.055,0.343 L52.055,0.343 C54.707,0.343 56.852,2.486 56.852,5.137 L56.852,23.383 L56.852,23.383 Z" fill="#68847D"></path>
                    <g transform="translate(17.000000, 0.000000)" fill="#8DB3A9">
                        <path d="M4.254,0.349 L0.524,23.377 L2.437,23.377 L6.1,0.767 C5.534,0.512 4.911,0.366 4.254,0.349 L4.254,0.349 Z"></path>
                        <path d="M7.016,1.319 L3.443,23.377 L4.259,23.377 L7.725,1.981 C7.511,1.737 7.275,1.516 7.016,1.319 L7.016,1.319 Z"></path>
                    </g>
                    <g transform="translate(2.000000, 0.000000)" fill="#8DB3A9">
                        <path d="M3.787,0.349 L0.057,23.377 L1.97,23.377 L5.633,0.767 C5.067,0.512 4.444,0.366 3.787,0.349 L3.787,0.349 Z"></path>
                        <path d="M6.549,1.319 L2.976,23.377 L3.792,23.377 L7.258,1.981 C7.044,1.737 6.809,1.516 6.549,1.319 L6.549,1.319 Z"></path>
                    </g>
                    <g transform="translate(32.000000, 0.000000)" fill="#8DB3A9">
                        <path d="M4.722,0.349 L0.992,23.377 L2.905,23.377 L6.568,0.767 C6.002,0.512 5.379,0.366 4.722,0.349 L4.722,0.349 Z"></path>
                        <path d="M7.483,1.319 L3.91,23.377 L4.726,23.377 L8.192,1.981 C7.979,1.737 7.743,1.516 7.483,1.319 L7.483,1.319 Z"></path>
                    </g>
                    <g transform="translate(48.000000, 0.000000)" fill="#8DB3A9">
                        <path d="M4.188,0.349 L0.458,23.377 L2.371,23.377 L6.034,0.767 C5.469,0.512 4.846,0.366 4.188,0.349 L4.188,0.349 Z"></path>
                        <path d="M6.95,1.319 L3.377,23.377 L4.193,23.377 L7.659,1.981 C7.445,1.737 7.21,1.516 6.95,1.319 L6.95,1.319 Z"></path>
                    </g>
                </g>
                <g transform="translate(10.000000, 119.000000)" id="Shape">
                    <path d="M10.449,23.945 L0.865,23.945 L0.865,5.699 C0.865,3.048 3.01,0.905 5.652,0.905 L5.652,0.905 C8.304,0.905 10.449,3.048 10.449,5.699 L10.449,23.945 L10.449,23.945 Z" fill="#68847D"></path>
                    <path d="M25.916,23.945 L16.332,23.945 L16.332,5.699 C16.332,3.048 18.477,0.905 21.121,0.905 L21.121,0.905 C23.773,0.905 25.916,3.048 25.916,5.699 L25.916,23.945 L25.916,23.945 Z" fill="#68847D"></path>
                    <path d="M41.383,23.945 L31.801,23.945 L31.801,5.699 C31.801,3.048 33.944,0.905 36.586,0.905 L36.586,0.905 C39.24,0.905 41.383,3.048 41.383,5.699 L41.383,23.945 L41.383,23.945 Z" fill="#68847D"></path>
                    <path d="M56.852,23.945 L47.266,23.945 L47.266,5.699 C47.266,3.048 49.411,0.905 52.055,0.905 L52.055,0.905 C54.707,0.905 56.852,3.048 56.852,5.699 L56.852,23.945 L56.852,23.945 Z" fill="#68847D"></path>
                    <g transform="translate(17.000000, 0.000000)" fill="#8DB3A9">
                        <path d="M4.254,0.911 L0.524,23.938 L2.437,23.938 L6.1,1.328 C5.534,1.074 4.911,0.928 4.254,0.911 L4.254,0.911 Z"></path>
                        <path d="M7.016,1.882 L3.443,23.939 L4.259,23.939 L7.725,2.543 C7.511,2.299 7.275,2.078 7.016,1.882 L7.016,1.882 Z"></path>
                    </g>
                    <g transform="translate(2.000000, 0.000000)" fill="#8DB3A9">
                        <path d="M3.787,0.911 L0.057,23.938 L1.97,23.938 L5.633,1.328 C5.067,1.074 4.444,0.928 3.787,0.911 L3.787,0.911 Z"></path>
                        <path d="M6.549,1.882 L2.976,23.939 L3.792,23.939 L7.258,2.543 C7.044,2.299 6.809,2.078 6.549,1.882 L6.549,1.882 Z"></path>
                    </g>
                    <g transform="translate(32.000000, 0.000000)" fill="#8DB3A9">
                        <path d="M4.722,0.911 L0.992,23.938 L2.905,23.938 L6.568,1.328 C6.002,1.074 5.379,0.928 4.722,0.911 L4.722,0.911 Z"></path>
                        <path d="M7.483,1.882 L3.91,23.939 L4.726,23.939 L8.192,2.543 C7.979,2.299 7.743,2.078 7.483,1.882 L7.483,1.882 Z"></path>
                    </g>
                    <g transform="translate(48.000000, 0.000000)" fill="#8DB3A9">
                        <path d="M4.188,0.911 L0.458,23.938 L2.371,23.938 L6.034,1.328 C5.469,1.074 4.846,0.928 4.188,0.911 L4.188,0.911 Z"></path>
                        <path d="M6.95,1.882 L3.377,23.939 L4.193,23.939 L7.659,2.543 C7.445,2.299 7.21,2.078 6.95,1.882 L6.95,1.882 Z"></path>
                    </g>
                </g>
                <rect id="Rectangle-path" fill="#EBB375" x="0.608" y="79.427" width="76.5" height="2.506"></rect>
            </g>
            <g id="Group" transform="translate(364.000000, 69.000000)" sketch:type="MSShapeGroup">
                <path d="M2.925,76.633 L2.925,43.637 L76.442,43.637 L76.442,153.233 L76.441,153.233 L76.441,186.229 L2.924,186.229 L2.924,76.633 L2.925,76.633 Z" id="Shape" fill="#F88A6B"></path>
                <path d="M2.925,59.845 L2.925,43.637 L76.442,43.637 L76.442,97.472 L76.441,97.472 L76.441,113.68 L2.924,113.68 L2.924,59.845 L2.925,59.845 Z" id="Shape" fill="#FF9C80"></path>
                <rect id="Rectangle-path" fill="#68847D" x="52.207" y="152.904" width="15.469" height="18.246"></rect>
                <rect id="Rectangle-path" fill="#68847D" x="11.689" y="152.904" width="15.467" height="18.246"></rect>
                <rect id="Rectangle-path" fill="#534741" x="0.812" y="175.724" width="77.748" height="10.505"></rect>
                <rect id="Rectangle-path" fill="#534741" x="7.157" y="9.932" width="65.045" height="29.474"></rect>
                <path d="M76.434,39.405 L76.434,6.541 L72.202,6.541 L72.202,39.405 L7.157,39.405 L7.157,6.541 L2.925,6.541 L2.925,39.405 L2.934,39.405 L2.934,43.637 L76.449,43.637 L76.449,39.405 L76.434,39.405 Z" id="Shape" fill="#736357"></path>
                <rect id="Rectangle-path" fill="#F88A6B" x="23.677" y="0.27" width="3.986" height="18.699"></rect>
                <rect id="Rectangle-path" fill="#F88A6B" x="16.482" y="0.27" width="3.986" height="18.699"></rect>
                <g transform="translate(11.000000, 52.000000)" id="Shape">
                    <path d="M10.273,23.633 L0.69,23.633 L0.69,5.387 C0.69,2.735 2.835,0.593 5.477,0.593 L5.477,0.593 C8.128,0.593 10.273,2.735 10.273,5.387 L10.273,23.633 L10.273,23.633 Z" fill="#68847D"></path>
                    <path d="M25.74,23.633 L16.156,23.633 L16.156,5.387 C16.156,2.735 18.302,0.593 20.945,0.593 L20.945,0.593 C23.598,0.593 25.74,2.735 25.74,5.387 L25.74,23.633 L25.74,23.633 Z" fill="#68847D"></path>
                    <path d="M41.207,23.633 L31.625,23.633 L31.625,5.387 C31.625,2.735 33.769,0.593 36.411,0.593 L36.411,0.593 C39.065,0.593 41.207,2.735 41.207,5.387 L41.207,23.633 L41.207,23.633 Z" fill="#68847D"></path>
                    <path d="M56.677,23.633 L47.09,23.633 L47.09,5.387 C47.09,2.735 49.236,0.593 51.879,0.593 L51.879,0.593 C54.531,0.593 56.677,2.735 56.677,5.387 L56.677,23.633 L56.677,23.633 Z" fill="#68847D"></path>
                    <g transform="translate(17.000000, 0.000000)" fill="#8DB3A9">
                        <path d="M4.079,0.599 L0.348,23.626 L2.261,23.626 L5.924,1.016 C5.358,0.761 4.736,0.615 4.079,0.599 L4.079,0.599 Z"></path>
                        <path d="M6.841,1.569 L3.268,23.626 L4.083,23.626 L7.55,2.23 C7.335,1.986 7.1,1.766 6.841,1.569 L6.841,1.569 Z"></path>
                    </g>
                    <g transform="translate(1.000000, 0.000000)" fill="#8DB3A9">
                        <path d="M4.612,0.599 L0.881,23.626 L2.794,23.626 L6.457,1.016 C5.892,0.761 5.27,0.615 4.612,0.599 L4.612,0.599 Z"></path>
                        <path d="M7.374,1.569 L3.801,23.626 L4.616,23.626 L8.083,2.23 C7.868,1.986 7.633,1.766 7.374,1.569 L7.374,1.569 Z"></path>
                    </g>
                    <g transform="translate(32.000000, 0.000000)" fill="#8DB3A9">
                        <path d="M4.547,0.599 L0.816,23.626 L2.729,23.626 L6.392,1.016 C5.826,0.761 5.204,0.615 4.547,0.599 L4.547,0.599 Z"></path>
                        <path d="M7.309,1.569 L3.736,23.626 L4.551,23.626 L8.018,2.23 C7.803,1.986 7.568,1.766 7.309,1.569 L7.309,1.569 Z"></path>
                    </g>
                    <g transform="translate(48.000000, 0.000000)" fill="#8DB3A9">
                        <path d="M4.014,0.599 L0.283,23.626 L2.196,23.626 L5.859,1.016 C5.293,0.761 4.671,0.615 4.014,0.599 L4.014,0.599 Z"></path>
                        <path d="M6.775,1.569 L3.202,23.626 L4.017,23.626 L7.484,2.23 C7.27,1.986 7.035,1.766 6.775,1.569 L6.775,1.569 Z"></path>
                    </g>
                </g>
                <g transform="translate(11.000000, 83.000000)" id="Shape">
                    <path d="M10.273,23.616 L0.69,23.616 L0.69,5.37 C0.69,2.719 2.835,0.576 5.477,0.576 L5.477,0.576 C8.128,0.576 10.273,2.719 10.273,5.37 L10.273,23.616 L10.273,23.616 Z" fill="#68847D"></path>
                    <path d="M25.74,23.616 L16.156,23.616 L16.156,5.37 C16.156,2.719 18.302,0.576 20.945,0.576 L20.945,0.576 C23.598,0.576 25.74,2.719 25.74,5.37 L25.74,23.616 L25.74,23.616 Z" fill="#68847D"></path>
                    <path d="M41.207,23.616 L31.625,23.616 L31.625,5.37 C31.625,2.719 33.769,0.576 36.411,0.576 L36.411,0.576 C39.065,0.576 41.207,2.719 41.207,5.37 L41.207,23.616 L41.207,23.616 Z" fill="#68847D"></path>
                    <path d="M56.677,23.616 L47.09,23.616 L47.09,5.37 C47.09,2.719 49.236,0.576 51.879,0.576 L51.879,0.576 C54.531,0.576 56.677,2.719 56.677,5.37 L56.677,23.616 L56.677,23.616 Z" fill="#68847D"></path>
                    <g transform="translate(17.000000, 0.000000)" fill="#8DB3A9">
                        <path d="M4.079,0.583 L0.348,23.61 L2.261,23.61 L5.924,1 C5.358,0.745 4.736,0.6 4.079,0.583 L4.079,0.583 Z"></path>
                        <path d="M6.841,1.554 L3.268,23.611 L4.083,23.611 L7.55,2.215 C7.335,1.971 7.1,1.75 6.841,1.554 L6.841,1.554 Z"></path>
                    </g>
                    <g transform="translate(1.000000, 0.000000)" fill="#8DB3A9">
                        <path d="M4.612,0.583 L0.881,23.61 L2.794,23.61 L6.457,1 C5.892,0.745 5.27,0.6 4.612,0.583 L4.612,0.583 Z"></path>
                        <path d="M7.374,1.554 L3.801,23.611 L4.616,23.611 L8.083,2.215 C7.868,1.971 7.633,1.75 7.374,1.554 L7.374,1.554 Z"></path>
                    </g>
                    <g transform="translate(32.000000, 0.000000)" fill="#8DB3A9">
                        <path d="M4.547,0.583 L0.816,23.61 L2.729,23.61 L6.392,1 C5.826,0.745 5.204,0.6 4.547,0.583 L4.547,0.583 Z"></path>
                        <path d="M7.309,1.554 L3.736,23.611 L4.551,23.611 L8.018,2.215 C7.803,1.971 7.568,1.75 7.309,1.554 L7.309,1.554 Z"></path>
                    </g>
                    <g transform="translate(48.000000, 0.000000)" fill="#8DB3A9">
                        <path d="M4.014,0.583 L0.283,23.61 L2.196,23.61 L5.859,1 C5.293,0.745 4.671,0.6 4.014,0.583 L4.014,0.583 Z"></path>
                        <path d="M6.775,1.554 L3.202,23.611 L4.017,23.611 L7.484,2.215 C7.27,1.971 7.035,1.75 6.775,1.554 L6.775,1.554 Z"></path>
                    </g>
                </g>
                <g transform="translate(11.000000, 119.000000)" id="Shape">
                    <path d="M10.273,23.383 L0.69,23.383 L0.69,5.137 C0.69,2.486 2.835,0.343 5.477,0.343 L5.477,0.343 C8.128,0.343 10.273,2.486 10.273,5.137 L10.273,23.383 L10.273,23.383 Z" fill="#68847D"></path>
                    <path d="M25.74,23.383 L16.156,23.383 L16.156,5.137 C16.156,2.486 18.302,0.343 20.945,0.343 L20.945,0.343 C23.598,0.343 25.74,2.486 25.74,5.137 L25.74,23.383 L25.74,23.383 Z" fill="#68847D"></path>
                    <path d="M41.207,23.383 L31.625,23.383 L31.625,5.137 C31.625,2.486 33.769,0.343 36.411,0.343 L36.411,0.343 C39.065,0.343 41.207,2.486 41.207,5.137 L41.207,23.383 L41.207,23.383 Z" fill="#68847D"></path>
                    <path d="M56.677,23.383 L47.09,23.383 L47.09,5.137 C47.09,2.486 49.236,0.343 51.879,0.343 L51.879,0.343 C54.531,0.343 56.677,2.486 56.677,5.137 L56.677,23.383 L56.677,23.383 Z" fill="#68847D"></path>
                    <g transform="translate(17.000000, 0.000000)" fill="#8DB3A9">
                        <path d="M4.079,0.349 L0.348,23.377 L2.261,23.377 L5.924,0.767 C5.358,0.512 4.736,0.366 4.079,0.349 L4.079,0.349 Z"></path>
                        <path d="M6.841,1.319 L3.268,23.377 L4.083,23.377 L7.55,1.981 C7.335,1.737 7.1,1.516 6.841,1.319 L6.841,1.319 Z"></path>
                    </g>
                    <g transform="translate(1.000000, 0.000000)" fill="#8DB3A9">
                        <path d="M4.612,0.349 L0.881,23.377 L2.794,23.377 L6.457,0.767 C5.892,0.512 5.27,0.366 4.612,0.349 L4.612,0.349 Z"></path>
                        <path d="M7.374,1.319 L3.801,23.377 L4.616,23.377 L8.083,1.981 C7.868,1.737 7.633,1.516 7.374,1.319 L7.374,1.319 Z"></path>
                    </g>
                    <g transform="translate(32.000000, 0.000000)" fill="#8DB3A9">
                        <path d="M4.547,0.349 L0.816,23.377 L2.729,23.377 L6.392,0.767 C5.826,0.512 5.204,0.366 4.547,0.349 L4.547,0.349 Z"></path>
                        <path d="M7.309,1.319 L3.736,23.377 L4.551,23.377 L8.018,1.981 C7.803,1.737 7.568,1.516 7.309,1.319 L7.309,1.319 Z"></path>
                    </g>
                    <g transform="translate(48.000000, 0.000000)" fill="#8DB3A9">
                        <path d="M4.014,0.349 L0.283,23.377 L2.196,23.377 L5.859,0.767 C5.293,0.512 4.671,0.366 4.014,0.349 L4.014,0.349 Z"></path>
                        <path d="M6.775,1.319 L3.202,23.377 L4.017,23.377 L7.484,1.981 C7.27,1.737 7.035,1.516 6.775,1.319 L6.775,1.319 Z"></path>
                    </g>
                </g>
                <g transform="translate(29.000000, 152.000000)">
                    <rect id="Rectangle-path" fill="#736357" x="3.188" y="0.904" width="14.996" height="29.754"></rect>
                    <rect id="Rectangle-path" fill="#68847D" x="5.279" y="5.211" width="10.815" height="21.141"></rect>
                    <g transform="translate(6.000000, 5.000000)" id="Shape" fill="#8DB3A9">
                        <path d="M7.854,0.083 L5.799,0.083 L0.626,21.352 L2.681,21.352 L7.854,0.083 Z"></path>
                        <path d="M10.167,0.083 L8.878,0.083 L3.705,21.352 L4.994,21.352 L10.167,0.083 Z"></path>
                    </g>
                    <rect id="Rectangle-path" fill="#998675" x="0.953" y="31.279" width="19.467" height="2.949"></rect>
                    <rect id="Rectangle-path" fill="#998675" x="0.316" y="30.658" width="20.74" height="0.621"></rect>
                </g>
                <path d="M54.851,35.139 L24.51,35.139 C24.51,26.761 31.302,19.969 39.68,19.969 C48.059,19.969 54.851,26.761 54.851,35.139 L54.851,35.139 Z" id="Shape" fill="#F88A6B"></path>
                <path d="M52.226,35.139 L27.135,35.139 C27.135,28.21 32.751,22.594 39.68,22.594 C46.609,22.594 52.226,28.21 52.226,35.139 L52.226,35.139 Z" id="Shape" fill="#FF9C80"></path>
                <g transform="translate(14.000000, 152.000000)" id="Shape" fill="#8DB3A9">
                    <path d="M7.881,0.783 L5.825,0.783 L0.652,19.15 L2.708,19.15 L7.881,0.783 Z"></path>
                    <path d="M10.193,0.783 L8.904,0.783 L3.731,19.15 L5.021,19.15 L10.193,0.783 Z"></path>
                </g>
                <g transform="translate(55.000000, 152.000000)" id="Shape" fill="#8DB3A9">
                    <path d="M7.399,0.783 L5.345,0.783 L0.171,19.15 L2.227,19.15 L7.399,0.783 Z"></path>
                    <path d="M9.712,0.783 L8.424,0.783 L3.25,19.15 L4.539,19.15 L9.712,0.783 Z"></path>
                </g>
                <g transform="translate(9.000000, 149.000000)">
                    <g transform="translate(0.000000, 10.000000)" id="Oval">
                        <circle fill="#F2F2F2" cx="18.077" cy="2.491" r="1.913"></circle>
                        <circle fill="#EBB375" cx="14.25" cy="2.491" r="1.914"></circle>
                        <circle fill="#F2F2F2" cx="10.423" cy="2.491" r="1.913"></circle>
                        <circle fill="#EBB375" cx="6.596" cy="2.491" r="1.914"></circle>
                        <circle fill="#F2F2F2" cx="2.769" cy="2.491" r="1.914"></circle>
                    </g>
                    <rect id="Rectangle-path" fill="#FDC17F" x="0.855" y="0.258" width="19.135" height="12.233"></rect>
                    <rect id="Rectangle-path" fill="#FFFFFF" x="16.164" y="0.258" width="3.826" height="12.233"></rect>
                    <rect id="Rectangle-path" fill="#FFFFFF" x="8.51" y="0.258" width="3.826" height="12.233"></rect>
                    <rect id="Rectangle-path" fill="#FFFFFF" x="0.856" y="0.258" width="3.826" height="12.233"></rect>
                </g>
                <g transform="translate(50.000000, 149.000000)">
                    <g transform="translate(0.000000, 10.000000)" id="Oval">
                        <circle fill="#F2F2F2" cx="17.596" cy="2.491" r="1.913"></circle>
                        <circle fill="#EBB375" cx="13.769" cy="2.491" r="1.914"></circle>
                        <circle fill="#F2F2F2" cx="9.942" cy="2.491" r="1.914"></circle>
                        <circle fill="#EBB375" cx="6.115" cy="2.491" r="1.914"></circle>
                        <circle fill="#F2F2F2" cx="2.288" cy="2.491" r="1.914"></circle>
                    </g>
                    <rect id="Rectangle-path" fill="#FDC17F" x="0.374" y="0.258" width="19.135" height="12.233"></rect>
                    <rect id="Rectangle-path" fill="#FFFFFF" x="15.683" y="0.258" width="3.826" height="12.233"></rect>
                    <rect id="Rectangle-path" fill="#FFFFFF" x="8.028" y="0.258" width="3.826" height="12.233"></rect>
                    <rect id="Rectangle-path" fill="#FFFFFF" x="0.375" y="0.258" width="3.826" height="12.233"></rect>
                </g>
            </g>
            <path d="M106.584,244.69 C103.752,244.69 101.187,245.813 99.292,247.63 C96.77,243.651 92.339,241 87.278,241 C79.422,241 73.052,247.37 73.05,255.228 L117.122,255.228 C117.121,249.408 112.403,244.69 106.584,244.69 L106.584,244.69 Z" id="Shape" fill="#768C42" sketch:type="MSShapeGroup"></path>
            <path d="M472.87,244.69 C470.038,244.69 467.473,245.813 465.579,247.63 C463.057,243.651 458.626,241 453.565,241 C445.709,241 439.338,247.37 439.337,255.228 L483.408,255.228 C483.407,249.408 478.689,244.69 472.87,244.69 L472.87,244.69 Z" id="Shape" fill="#768C42" sketch:type="MSShapeGroup"></path>
            <g id="Group" transform="translate(605.000000, 200.000000)" sketch:type="MSShapeGroup">
                <ellipse id="Oval" fill="#E87A3F" cx="12.617" cy="21.493" rx="12.573" ry="20.815"></ellipse>
                <path d="M0.044,21.493 C0.044,32.989 5.674,42.308 12.617,42.308 L12.617,0.677 C5.674,0.678 0.044,9.997 0.044,21.493 L0.044,21.493 Z" id="Shape" fill="#CF6D39"></path>
                <path d="M19.104,28.737 L17.709,27.664 L12.653,34.237 L5.705,24.714 L4.284,25.751 L11.297,35.364 L10.419,55.229 L14.816,55.229 L13.941,35.447 L19.104,28.737 Z" id="Shape" fill="#754C24"></path>
            </g>
            <g id="Group" transform="translate(308.000000, 200.000000)" sketch:type="MSShapeGroup">
                <ellipse id="Oval" fill="#F8C54C" cx="12.617" cy="21.493" rx="12.573" ry="20.815"></ellipse>
                <path d="M0.044,21.493 C0.044,32.989 5.673,42.308 12.617,42.308 L12.617,0.677 C5.674,0.678 0.044,9.997 0.044,21.493 L0.044,21.493 Z" id="Shape" fill="#E3B446"></path>
                <path d="M19.104,28.737 L17.708,27.664 L12.654,34.237 L5.705,24.714 L4.285,25.751 L11.297,35.364 L10.419,55.229 L14.816,55.229 L13.942,35.447 L19.104,28.737 Z" id="Shape" fill="#754C24"></path>
            </g>
            <g id="Group" transform="translate(8.000000, 208.000000)" sketch:type="MSShapeGroup">
                <ellipse id="Oval" fill="#F8C54C" cx="11.617" cy="18.338" rx="10.767" ry="17.826"></ellipse>
                <path d="M0.85,18.338 C0.85,28.183 5.671,36.164 11.617,36.164 L11.617,0.512 C5.671,0.512 0.85,8.492 0.85,18.338 L0.85,18.338 Z" id="Shape" fill="#E3B446"></path>
                <path d="M17.172,24.541 L15.978,23.622 L11.648,29.252 L5.698,21.096 L4.481,21.983 L10.487,30.217 L9.735,47.229 L13.5,47.229 L12.751,30.288 L17.172,24.541 Z" id="Shape" fill="#754C24"></path>
            </g>
            <g id="Group" transform="translate(344.000000, 206.000000)" sketch:type="MSShapeGroup">
                <path d="M31.448,15.869 C31.448,24.338 24.578,31.209 16.105,31.209 C7.631,31.209 0.761,24.338 0.761,15.869 C0.761,7.396 7.631,0.526 16.105,0.526 C24.578,0.526 31.448,7.396 31.448,15.869 L31.448,15.869 Z" id="Shape" fill="#F8C54C"></path>
                <path d="M16.104,31.209 L16.104,0.526 C7.632,0.526 0.762,7.398 0.762,15.866 C0.762,24.34 7.632,31.209 16.104,31.209 L16.104,31.209 Z" id="Shape" fill="#E3B446"></path>
                <path d="M23.48,19.104 L21.895,17.885 L16.146,25.359 L8.245,14.53 L6.63,15.709 L14.604,26.641 L13.605,49.229 L18.605,49.229 L17.611,26.735 L23.48,19.104 Z" id="Shape" fill="#754C24"></path>
            </g>
            <g id="Group" transform="translate(23.000000, 205.000000)" sketch:type="MSShapeGroup">
                <path d="M31.281,16.298 C31.281,24.912 24.293,31.902 15.675,31.902 C7.057,31.902 0.069,24.913 0.069,16.298 C0.069,7.681 7.057,0.694 15.675,0.694 C24.292,0.693 31.281,7.681 31.281,16.298 L31.281,16.298 Z" id="Shape" fill="#E87A3F"></path>
                <path d="M15.672,31.901 L15.672,0.693 C7.056,0.693 0.068,7.682 0.068,16.295 C0.068,24.914 7.057,31.901 15.672,31.901 L15.672,31.901 Z" id="Shape" fill="#CF6D39"></path>
                <path d="M23.176,19.589 L21.563,18.349 L15.717,25.951 L7.68,14.937 L6.037,16.136 L14.148,27.254 L13.132,50.229 L18.218,50.229 L17.206,27.351 L23.176,19.589 Z" id="Shape" fill="#754C24"></path>
            </g>
            <g id="Group" transform="translate(327.000000, 218.000000)" sketch:type="MSShapeGroup">
                <circle id="Oval" fill="#E87A3F" cx="12.469" cy="11.904" r="11.647"></circle>
                <path d="M12.467,23.55 L12.467,0.258 C6.037,0.258 0.821,5.475 0.821,11.903 C0.821,18.335 6.037,23.55 12.467,23.55 L12.467,23.55 Z" id="Shape" fill="#CF6D39"></path>
                <path d="M18.067,14.361 L16.863,13.436 L12.5,19.109 L6.502,10.889 L5.276,11.783 L11.329,20.081 L10.571,37.229 L14.367,37.229 L13.612,20.154 L18.067,14.361 Z" id="Shape" fill="#754C24"></path>
            </g>
            <g id="Group" transform="translate(620.000000, 206.000000)" sketch:type="MSShapeGroup">
                <path d="M31.188,15.869 C31.188,24.338 24.318,31.209 15.844,31.209 C7.371,31.209 0.501,24.338 0.501,15.869 C0.501,7.396 7.371,0.526 15.844,0.526 C24.318,0.526 31.188,7.396 31.188,15.869 L31.188,15.869 Z" id="Shape" fill="#F8C54C"></path>
                <path d="M15.843,31.209 L15.843,0.526 C7.372,0.526 0.502,7.398 0.502,15.866 C0.502,24.34 7.372,31.209 15.843,31.209 L15.843,31.209 Z" id="Shape" fill="#E3B446"></path>
                <path d="M23.221,19.104 L21.635,17.885 L15.887,25.359 L7.985,14.53 L6.37,15.709 L14.344,26.641 L13.346,49.229 L18.346,49.229 L17.351,26.735 L23.221,19.104 Z" id="Shape" fill="#754C24"></path>
            </g>
            <path d="M654.064,265.324 L5.974,265.324 C3.186,265.324 0.926,263.063 0.926,260.276 L0.926,260.276 C0.926,257.488 3.186,255.228 5.974,255.228 L654.064,255.228 C656.852,255.228 659.112,257.488 659.112,260.276 L659.112,260.276 C659.112,263.063 656.853,265.324 654.064,265.324 L654.064,265.324 Z" id="Shape" fill="#5A736E" sketch:type="MSShapeGroup"></path>
            <path d="M561.234,7.167 C561.234,4.997 561.546,2.9 562.116,0.914 C552.659,3.628 545.734,12.337 545.734,22.667 C545.734,35.161 555.869,45.297 568.366,45.297 C578.697,45.297 587.406,38.37 590.119,28.914 C588.133,29.484 586.036,29.797 583.866,29.797 C571.369,29.797 561.234,19.661 561.234,7.167 L561.234,7.167 Z" id="Shape" fill="#FFD84F" sketch:type="MSShapeGroup"></path>
        </g>
    </g>
</svg>